<?xml version="1.0" encoding="UTF-8"?>
<svg xmlns="http://www.w3.org/2000/svg" xmlns:xlink="http://www.w3.org/1999/xlink" width="30" height="30" viewBox="0 0 30 30" version="1.1">
<g id="surface1">
<path style=" stroke:none;fill-rule:nonzero;fill:rgb(0%,0%,0%);fill-opacity:1;" d="M 14.894531 0.128906 C 15.039062 -0.0429688 15.292969 -0.03125 15.421875 0.160156 C 15.710938 0.550781 15.875 1.046875 16.058594 1.515625 C 16.6875 3.191406 17.34375 4.875 18.296875 6.332031 C 18.679688 6.957031 19.132812 7.511719 19.605469 8.042969 C 20.058594 8.53125 20.515625 9.054688 20.761719 9.738281 C 21.003906 10.433594 20.929688 11.207031 20.828125 11.925781 C 20.726562 12.6875 20.703125 13.472656 20.84375 14.226562 C 21.023438 15.105469 21.359375 15.9375 21.785156 16.679688 C 21.925781 16.929688 22.207031 16.828125 22.410156 16.777344 C 23.332031 16.453125 24.316406 16.554688 25.246094 16.789062 C 25.65625 16.894531 26.070312 17.003906 26.449219 17.222656 C 27.246094 17.652344 27.941406 18.421875 28.265625 19.40625 C 28.417969 19.832031 28.3125 20.332031 28.515625 20.738281 C 28.738281 21.203125 29.15625 21.460938 29.550781 21.679688 C 29.714844 21.761719 29.882812 21.84375 30 22.011719 C 29.351562 22.089844 28.703125 21.941406 28.054688 22.015625 C 27.71875 22.050781 27.457031 22.328125 27.1875 22.539062 C 26.589844 23.03125 25.898438 23.355469 25.179688 23.460938 C 24.179688 23.632812 23.164062 23.4375 22.1875 23.15625 C 21.96875 23.089844 21.753906 23.023438 21.546875 22.921875 C 22.046875 22.867188 22.546875 22.980469 23.046875 22.980469 C 23.710938 22.976562 24.390625 23.042969 25.039062 22.828125 C 25.519531 22.699219 25.972656 22.453125 26.386719 22.132812 C 26.6875 21.90625 26.953125 21.617188 27.277344 21.433594 C 27.550781 21.28125 27.882812 21.519531 28.132812 21.277344 C 28.0625 20.996094 27.839844 20.839844 27.640625 20.699219 C 27.089844 20.347656 26.460938 20.132812 25.828125 20.167969 C 25.660156 20.148438 25.609375 20.378906 25.535156 20.511719 C 25.4375 20.769531 25.210938 20.945312 24.972656 20.925781 C 24.757812 20.90625 24.550781 20.835938 24.347656 20.753906 C 24.164062 20.671875 24.105469 20.425781 23.992188 20.257812 C 23.777344 20.191406 23.566406 20.335938 23.355469 20.371094 C 22.707031 20.5625 22.015625 20.332031 21.46875 19.902344 C 21.082031 19.59375 20.707031 19.203125 20.527344 18.675781 C 20.449219 18.445312 20.371094 18.183594 20.167969 18.074219 C 19.738281 17.859375 19.261719 17.792969 18.800781 17.851562 C 18.539062 17.902344 18.242188 18.058594 18.175781 18.394531 C 18.121094 18.75 18.339844 19.054688 18.539062 19.285156 C 19.1875 19.9375 20.003906 20.285156 20.804688 20.578125 C 21.121094 20.703125 21.457031 20.757812 21.746094 20.964844 C 21.886719 21.066406 22.015625 21.25 21.984375 21.460938 C 21.941406 21.761719 21.757812 21.992188 21.582031 22.199219 C 21.054688 22.804688 20.386719 23.195312 19.792969 23.695312 C 18.914062 24.285156 17.917969 24.550781 16.945312 24.820312 C 15.867188 25.082031 14.773438 25.277344 13.679688 25.398438 C 12.902344 25.460938 12.117188 25.609375 11.410156 26.015625 C 10.894531 26.3125 10.421875 26.695312 9.921875 27.019531 C 9.417969 27.335938 8.867188 27.570312 8.300781 27.65625 C 6.480469 27.980469 4.734375 28.699219 2.976562 29.308594 C 2.289062 29.546875 1.609375 29.8125 0.90625 29.972656 C 0.605469 30.003906 0.300781 29.992188 0 29.972656 C 0.0273438 29.871094 0.0429688 29.765625 0.0898438 29.671875 C 0.679688 28.761719 1.519531 28.113281 2.429688 27.746094 C 3.40625 27.335938 4.4375 27.179688 5.453125 26.980469 C 5.808594 26.890625 6.167969 26.808594 6.511719 26.652344 C 6.835938 26.503906 7.121094 26.253906 7.359375 25.957031 C 7.863281 25.339844 8.277344 24.636719 8.742188 23.980469 C 9.414062 23.027344 10.171875 22.152344 11.042969 21.464844 C 11.632812 20.988281 12.265625 20.597656 12.917969 20.257812 C 13.375 20.011719 13.847656 19.75 14.210938 19.320312 C 14.445312 19.050781 14.5625 18.625 14.449219 18.246094 C 14.324219 17.714844 13.941406 17.355469 13.585938 17.039062 C 12.566406 16.167969 11.441406 15.496094 10.320312 14.832031 C 10.253906 14.789062 10.199219 14.722656 10.148438 14.65625 C 10.703125 14.601562 11.25 14.757812 11.800781 14.757812 C 12.140625 14.765625 12.476562 14.785156 12.8125 14.746094 C 12.96875 14.71875 13.128906 14.652344 13.230469 14.5 C 13.269531 14.363281 13.25 14.203125 13.179688 14.082031 C 13.019531 13.75 12.722656 13.558594 12.542969 13.246094 C 12.785156 13.320312 13.003906 13.46875 13.230469 13.59375 C 13.910156 13.984375 14.578125 14.414062 15.261719 14.800781 C 15.664062 15.035156 16.0625 15.28125 16.484375 15.464844 C 16.597656 15.519531 16.726562 15.507812 16.851562 15.503906 C 16.808594 15.1875 16.605469 14.957031 16.441406 14.722656 C 16.09375 14.242188 15.699219 13.800781 15.460938 13.230469 C 15.246094 12.707031 15.082031 12.144531 15.015625 11.566406 C 14.988281 11.421875 14.984375 11.242188 14.863281 11.164062 C 14.097656 10.5625 13.335938 9.964844 12.570312 9.367188 C 12.421875 9.265625 12.304688 9.105469 12.234375 8.921875 C 12.09375 8.574219 11.910156 8.234375 11.894531 7.839844 C 12.113281 7.804688 12.296875 7.960938 12.476562 8.082031 C 12.992188 8.453125 13.507812 8.824219 14.007812 9.222656 C 14.214844 9.390625 14.425781 9.5625 14.601562 9.78125 C 14.75 9.960938 14.832031 10.203125 14.929688 10.421875 C 15.003906 10.09375 15.082031 9.769531 15.199219 9.464844 C 14.835938 9.253906 14.460938 9.078125 14.105469 8.855469 C 13.769531 8.648438 13.417969 8.449219 13.144531 8.132812 C 12.980469 7.871094 12.863281 7.535156 12.914062 7.199219 C 13.164062 7.164062 13.382812 7.335938 13.585938 7.480469 C 13.878906 7.714844 14.167969 7.960938 14.457031 8.203125 C 14.8125 8.480469 15.09375 8.878906 15.265625 9.34375 C 15.550781 8.9375 15.773438 8.453125 16.148438 8.15625 C 16.351562 7.980469 16.617188 7.976562 16.855469 8.015625 C 17.074219 8.054688 17.273438 8.203125 17.496094 8.210938 C 17.5 8.050781 17.484375 7.890625 17.417969 7.75 C 17.1875 7.21875 16.890625 6.734375 16.589844 6.257812 C 16.160156 5.589844 15.714844 4.929688 15.222656 4.324219 C 14.992188 4.035156 14.703125 3.796875 14.550781 3.433594 C 14.300781 2.871094 14.269531 2.207031 14.351562 1.585938 C 14.433594 1.058594 14.558594 0.507812 14.894531 0.128906 Z M 14.894531 0.128906 "/>
<path style=" stroke:none;fill-rule:nonzero;fill:rgb(0%,0%,0%);fill-opacity:1;" d="M 13.328125 2.855469 C 13.496094 2.835938 13.671875 2.859375 13.8125 2.980469 C 14.199219 3.296875 14.519531 3.710938 14.84375 4.109375 C 15.425781 4.878906 15.972656 5.691406 16.429688 6.574219 C 16.574219 6.875 16.742188 7.183594 16.753906 7.542969 C 16.613281 7.574219 16.472656 7.542969 16.355469 7.445312 C 15.410156 6.8125 14.503906 6.046875 13.832031 5.019531 C 13.449219 4.414062 13.15625 3.625 13.328125 2.855469 Z M 13.328125 2.855469 "/>
<path style=" stroke:none;fill-rule:nonzero;fill:rgb(0%,0%,0%);fill-opacity:1;" d="M 12.992188 5.355469 C 13.078125 5.15625 13.289062 5.253906 13.417969 5.328125 C 13.839844 5.585938 14.207031 5.957031 14.574219 6.304688 C 14.996094 6.699219 15.316406 7.222656 15.566406 7.78125 C 15.660156 7.992188 15.738281 8.21875 15.738281 8.457031 C 15.53125 8.546875 15.34375 8.367188 15.164062 8.257812 C 14.550781 7.824219 13.929688 7.378906 13.417969 6.78125 C 13.101562 6.421875 12.917969 5.875 12.992188 5.355469 Z M 12.992188 5.355469 "/>
<path style=" stroke:none;fill-rule:nonzero;fill:rgb(0%,0%,0%);fill-opacity:1;" d="M 3.195312 7.808594 C 3.464844 7.789062 3.664062 8.035156 3.875 8.191406 C 4.820312 8.964844 5.820312 9.652344 6.910156 10.082031 C 7.148438 10.167969 7.40625 10.25 7.65625 10.171875 C 7.78125 9.9375 7.667969 9.671875 7.582031 9.453125 C 7.378906 9.023438 7.027344 8.742188 6.738281 8.402344 C 6.667969 8.332031 6.652344 8.222656 6.636719 8.121094 C 6.738281 8.125 6.847656 8.113281 6.941406 8.167969 C 7.285156 8.335938 7.601562 8.578125 7.914062 8.816406 C 8.632812 9.378906 9.324219 9.988281 10.015625 10.601562 C 10.582031 11.167969 11.089844 11.816406 11.59375 12.464844 C 11.9375 12.9375 12.320312 13.394531 12.535156 13.976562 C 12.410156 14.0625 12.277344 14.128906 12.148438 14.207031 C 12.128906 14.363281 12.117188 14.519531 12.109375 14.679688 C 11.714844 14.636719 11.347656 14.453125 10.964844 14.34375 C 10.777344 14.273438 10.574219 14.25 10.398438 14.132812 C 8.226562 12.574219 6.054688 11.011719 3.875 9.457031 C 3.6875 9.332031 3.625 9.070312 3.53125 8.855469 C 3.402344 8.515625 3.246094 8.183594 3.195312 7.808594 Z M 3.195312 7.808594 "/>
<path style=" stroke:none;fill-rule:nonzero;fill:rgb(0%,0%,0%);fill-opacity:1;" d="M 12.527344 10.621094 C 12.777344 10.59375 12.992188 10.765625 13.191406 10.921875 C 13.878906 11.496094 14.5 12.175781 15.074219 12.90625 C 15.257812 13.152344 15.46875 13.410156 15.515625 13.75 C 15.292969 13.785156 15.097656 13.636719 14.902344 13.53125 C 14.285156 13.167969 13.664062 12.726562 13.277344 12.027344 C 13.015625 11.570312 12.667969 11.160156 12.527344 10.621094 Z M 12.527344 10.621094 "/>
<path style=" stroke:none;fill-rule:nonzero;fill:rgb(0%,0%,0%);fill-opacity:1;" d="M 10.75 17.007812 C 11.1875 16.730469 11.714844 16.71875 12.191406 16.84375 C 12.933594 17.101562 13.59375 17.617188 14.179688 18.207031 C 14.257812 18.277344 14.3125 18.371094 14.339844 18.480469 C 14.085938 18.5 13.84375 18.40625 13.59375 18.363281 C 12.726562 18.132812 11.867188 17.820312 11.042969 17.40625 C 10.925781 17.351562 10.824219 17.261719 10.730469 17.167969 C 10.734375 17.128906 10.742188 17.050781 10.75 17.007812 Z M 10.75 17.007812 "/>
<path style=" stroke:none;fill-rule:nonzero;fill:rgb(0%,0%,0%);fill-opacity:1;" d="M 10.644531 18.464844 C 10.769531 18.378906 10.90625 18.304688 11.054688 18.292969 C 11.757812 18.1875 12.449219 18.445312 13.085938 18.777344 C 13.238281 18.867188 13.414062 18.917969 13.535156 19.0625 C 13.589844 19.210938 13.457031 19.339844 13.351562 19.386719 C 13.09375 19.484375 12.816406 19.453125 12.550781 19.421875 C 12.019531 19.328125 11.5 19.160156 11.007812 18.910156 C 10.851562 18.816406 10.636719 18.710938 10.644531 18.464844 Z M 10.644531 18.464844 "/>
<path style=" stroke:none;fill-rule:nonzero;fill:rgb(0%,0%,0%);fill-opacity:1;" d="M 9.710938 19.636719 C 10.371094 19.609375 11.042969 19.390625 11.695312 19.621094 C 12.035156 19.734375 12.394531 19.828125 12.6875 20.070312 C 12.683594 20.113281 12.675781 20.199219 12.667969 20.242188 C 12.242188 20.414062 11.785156 20.351562 11.347656 20.292969 C 10.773438 20.214844 10.171875 20.136719 9.671875 19.769531 C 9.679688 19.738281 9.699219 19.667969 9.710938 19.636719 Z M 9.710938 19.636719 "/>
<path style=" stroke:none;fill-rule:nonzero;fill:rgb(0%,0%,0%);fill-opacity:1;" d="M 6.167969 20.734375 C 6.613281 20.582031 7.082031 20.507812 7.542969 20.457031 C 8.335938 20.449219 9.136719 20.398438 9.925781 20.535156 C 10.363281 20.578125 10.789062 20.695312 11.21875 20.785156 C 11.222656 20.816406 11.234375 20.875 11.238281 20.90625 C 10.644531 21.234375 9.996094 21.402344 9.359375 21.578125 C 9.179688 21.644531 8.941406 21.609375 8.824219 21.824219 C 8.945312 22.035156 9.164062 22.160156 9.226562 22.414062 C 8.964844 22.539062 8.679688 22.515625 8.40625 22.527344 C 7.308594 22.542969 6.210938 22.527344 5.113281 22.480469 C 4.886719 22.449219 4.632812 22.46875 4.4375 22.308594 C 4.464844 22.203125 4.5 22.097656 4.589844 22.046875 C 5.105469 21.660156 5.738281 21.660156 6.304688 21.441406 C 6.394531 21.417969 6.457031 21.332031 6.503906 21.242188 C 6.324219 21.15625 6.125 21.105469 5.960938 20.96875 C 5.921875 20.820312 6.078125 20.773438 6.167969 20.734375 Z M 6.167969 20.734375 "/>
<path style=" stroke:none;fill-rule:nonzero;fill:rgb(0%,0%,0%);fill-opacity:1;" d="M 6.523438 23.101562 C 7.117188 23.039062 7.710938 23.050781 8.308594 23.050781 C 8.558594 23.058594 8.8125 23.039062 9.0625 23.109375 C 9.058594 23.148438 9.054688 23.222656 9.050781 23.261719 C 8.671875 23.59375 8.207031 23.722656 7.769531 23.898438 C 6.671875 24.265625 5.550781 24.585938 4.410156 24.664062 C 4.023438 24.652344 3.652344 24.808594 3.269531 24.773438 C 3.488281 24.40625 3.800781 24.140625 4.09375 23.871094 C 4.820312 23.332031 5.691406 23.199219 6.523438 23.101562 Z M 6.523438 23.101562 "/>
<path style=" stroke:none;fill-rule:nonzero;fill:rgb(0%,0%,0%);fill-opacity:1;" d="M 6.957031 24.621094 C 7.191406 24.601562 7.453125 24.507812 7.671875 24.644531 C 7.75 24.828125 7.566406 24.957031 7.464844 25.054688 C 6.855469 25.539062 6.171875 25.878906 5.5 26.222656 C 4.566406 26.671875 3.621094 27.105469 2.640625 27.390625 C 2.183594 27.519531 1.730469 27.679688 1.265625 27.765625 C 1.105469 27.800781 0.9375 27.785156 0.777344 27.722656 C 0.78125 27.597656 0.765625 27.460938 0.828125 27.351562 C 1.03125 26.941406 1.289062 26.574219 1.597656 26.273438 C 2.070312 25.855469 2.628906 25.601562 3.183594 25.394531 C 4.410156 24.957031 5.683594 24.738281 6.957031 24.621094 Z M 6.957031 24.621094 "/>
</g>
</svg>
