<svg version="1.1" id="Layer_1" xmlns="http://www.w3.org/2000/svg" xmlns:xlink="http://www.w3.org/1999/xlink" x="0px" y="0px" viewBox="16.7527 15.2888 1395.2473 780.2873" enable-background="new 16.7527 15.2888 1395.2473 780.2873" xml:space="preserve">
	<path d="M330.06,28.04c2.82-2.81,7.9-2.63,10.4,0.53c5.73,6.48,8.94,14.68,12.61,22.41c12.38,27.74,25.38,55.6,44.13,79.71   c7.6,10.29,16.57,19.47,25.85,28.25c8.95,8.11,17.99,16.77,22.82,28.08c4.79,11.46,3.3,24.28,1.33,36.19   c-1.97,12.57-2.5,25.56,0.31,38.05c3.54,14.55,10.16,28.26,18.62,40.57c2.73,4.15,8.32,2.43,12.32,1.64   c18.2-5.4,37.65-3.7,55.98,0.16c8.08,1.74,16.26,3.55,23.76,7.16c15.75,7.14,29.46,19.84,35.84,36.12   c2.98,7.03,0.95,15.32,4.93,22.04c4.4,7.72,12.68,11.99,20.48,15.55c3.2,1.37,6.56,2.72,8.83,5.5c-12.76,1.29-25.6-1.17-38.36,0.1   c-6.64,0.59-11.81,5.16-17.15,8.65c-11.77,8.13-25.42,13.48-39.62,15.24c-19.8,2.82-39.84-0.38-59.1-5.04   c-4.28-1.08-8.58-2.21-12.67-3.87c9.88-0.88,19.74,0.97,29.63,0.96c13.14-0.07,26.54,1.05,39.36-2.53   c9.47-2.14,18.44-6.18,26.55-11.49c5.94-3.74,11.22-8.52,17.58-11.56c5.41-2.49,12.02,1.44,16.9-2.6   c-1.33-4.67-5.77-7.24-9.67-9.56c-10.91-5.83-23.34-9.33-35.77-8.79c-3.33-0.32-4.36,3.48-5.79,5.73   c-1.93,4.22-6.44,7.15-11.1299,6.79c-4.21-0.28-8.36-1.43-12.32-2.81c-3.67-1.36-4.78-5.44-7.01-8.24c-4.29-1.07-8.42,1.3-12.6,1.9   c-12.81,3.17-26.45-0.61-37.24-7.77c-7.68-5.11-15.06-11.56-18.6-20.3c-1.54-3.76-3.06-8.12-7.06-9.93   c-8.49-3.56-17.91-4.61-27.04-3.64c-5.13,0.81-10.99,3.4-12.36,8.92c-1.02,5.9,3.24,10.97,7.22,14.76   c12.83,10.77,28.92,16.55,44.72,21.41c6.21,2.06,12.91,2.94,18.61,6.35c2.75,1.73,5.28,4.75,4.71,8.22   c-0.85,4.98-4.5,8.8-7.97,12.2c-10.43,10.05-23.57,16.48-35.29,24.8c-17.35,9.74-37.03,14.13-56.24,18.61   c-21.33,4.27-42.86,7.52-64.52,9.5c-15.32,1.05-30.85,3.51-44.81,10.23c-10.13,4.89-19.46,11.24-29.31,16.62   c-10.02,5.23-20.83,9.1-32.07,10.56c-35.91,5.32-70.35,17.22-105.11,27.28c-13.53,3.99-26.99,8.38-40.87,11.01   c-5.93,0.54-11.92,0.29-17.86,0.0099c0.5-1.6899,0.83-3.47,1.78-4.97c11.66-15.06,28.23-25.79,46.17-31.88   c19.27-6.76,39.62-9.35,59.67-12.67c7.04-1.47,14.16-2.86,20.91-5.43c6.4-2.46,12.02-6.59,16.78-11.47   c9.91-10.2,18.1-21.88,27.28-32.71c13.25-15.74,28.19-30.22,45.38-41.63c11.65-7.88,24.19-14.32,37.06-19.93   c9.04-4.12,18.35-8.41,25.49-15.5c4.66-4.5,6.95-11.55,4.73-17.8c-2.49-8.8-10.01-14.73-17-19.98   c-20.15-14.4-42.39-25.51-64.51-36.49c-1.34-0.68-2.38-1.79-3.36-2.89c10.93-0.94,21.72,1.66,32.62,1.68   c6.65,0.13,13.32,0.44,19.95-0.24c3.04-0.45,6.24-1.52,8.22-4.02c0.76-2.3,0.41-4.93-0.96-6.93c-3.19-5.5-9.02-8.68-12.59-13.84   c4.79,1.23,9.11,3.67,13.55,5.77c13.47,6.47,26.63,13.55,40.14,19.95c7.93,3.85,15.77,7.98,24.09,10.96   c2.31,0.91,4.83,0.74,7.26,0.66c-0.84-5.25-4.83-9.05-8.1-12.93c-6.8-7.93-14.65-15.21-19.35-24.68   c-4.26-8.67-7.43-17.94-8.76-27.52c-0.53-2.37-0.61-5.36-3.02-6.67c-15.09-9.9-30.18-19.81-45.29-29.68   c-2.94-1.72-5.19-4.33-6.62-7.39c-2.78-5.71-6.39-11.36-6.71-17.87c4.31-0.58,7.98,1.97,11.52,4   c10.14,6.14,20.32,12.24,30.18,18.83c4.11,2.83,8.28,5.67,11.77,9.26c2.94,3.01,4.53,6.96,6.49,10.6   c1.43-5.4,2.97-10.77,5.31-15.86c-7.16-3.44-14.57-6.34-21.61-10.05c-6.61-3.45-13.55-6.69-18.97-11.92   c-3.26-4.36-5.56-9.93-4.52-15.45c4.92-0.6,9.19,2.25,13.2,4.65c5.85,3.83,11.54,7.9,17.26,11.92   c7.01,4.61,12.55,11.19,15.96,18.85c5.63-6.68,10-14.68,17.41-19.63c4.02-2.88,9.25-2.97,13.96-2.28c4.34,0.6,8.23,3.04,12.67,3.19   c0.02-2.62-0.24-5.3-1.57-7.61c-4.56-8.77-10.42-16.78-16.32-24.68c-8.5-11.07-17.31-21.95-27.04-31.97   c-4.53-4.79-10.22-8.72-13.26-14.73c-4.91-9.35-5.51-20.34-3.95-30.61C320.98,43.46,323.45,34.32,330.06,28.04z"/>
	<path d="M299.15,73.16c3.31-0.3,6.8,0.03,9.54,2.08c7.66,5.2,13.99,12.06,20.4,18.68c11.48,12.7,22.26,26.16,31.28,40.74   c2.85,4.98,6.19,10.09,6.43,16c-2.78,0.58-5.55,0-7.91-1.56c-18.63-10.47-36.57-23.16-49.79-40.17   C301.51,98.92,295.73,85.86,299.15,73.16z"/>
	<path d="M292.52,114.51c1.65-3.31,5.86-1.69,8.4-0.44c8.35,4.24,15.54,10.38,22.85,16.17c8.29,6.51,14.64,15.16,19.59,24.4   c1.82,3.47,3.32,7.21,3.39,11.19c-4.15,1.49-7.85-1.48-11.34-3.29c-12.12-7.19-24.39-14.53-34.5-24.46   C294.68,132.12,291.06,123.1,292.52,114.51z"/>
	<path d="M99.07,155.11c5.33-0.33,9.25,3.74,13.46,6.34c18.6,12.79,38.41,24.14,59.92,31.24c4.71,1.45,9.76,2.8,14.67,1.47   c2.53-3.83,0.27-8.23-1.45-11.88c-4-7.1-10.93-11.76-16.6-17.4c-1.39-1.15-1.73-2.94-2.05-4.61c2.02,0.03,4.15-0.14,6.05,0.74   c6.79,2.8,12.98,6.82,19.17,10.74c14.19,9.31,27.86,19.38,41.46,29.53c11.25,9.36,21.22,20.13,31.2,30.81   c6.79,7.83,14.35,15.41,18.59,25.02c-2.49,1.41-5.11,2.54-7.68,3.79c-0.36,2.6-0.56,5.22-0.74,7.84   c-7.76-0.69-15.03-3.77-22.57-5.54c-3.73-1.16-7.73-1.57-11.18-3.5c-42.92-25.78-85.81-51.64-128.78-77.34   c-3.76-2.05-4.96-6.41-6.79-9.97C103.2,166.78,100.05,161.28,99.07,155.11z"/>
	<path d="M283.34,201.61c4.95-0.47,9.15,2.41,13.07,5c13.62,9.44,25.87,20.74,37.19,32.81c3.64,4.07,7.81,8.29,8.73,13.92   c-4.42,0.62-8.29-1.84-12.12-3.58c-12.19-6-24.43-13.32-32.11-24.86C293,217.29,286.11,210.52,283.34,201.61z"/>
	<path d="M248.21,307.27c8.66-4.6,19.07-4.82,28.47-2.7c14.66,4.22,27.7,12.75,39.27,22.5c1.52,1.16,2.63,2.73,3.18,4.57   c-5,0.27-9.83-1.24-14.73-1.94c-17.18-3.87-34.11-9-50.35-15.85c-2.31-0.93-4.33-2.39-6.24-3.94   C247.91,309.25,248.11,307.93,248.21,307.27z"/>
	<path d="M246.14,331.35c2.5-1.43,5.18-2.62,8.08-2.84c13.88-1.74,27.57,2.54,40.14,8.03c3,1.44,6.46,2.28,8.89,4.67   c1.08,2.48-1.55,4.64-3.66,5.4c-5.1,1.62-10.59,1.11-15.82,0.57c-10.44-1.53-20.74-4.34-30.45-8.47   C250.26,337.18,245.97,335.43,246.14,331.35z"/>
	<path d="M227.69,350.72c13.03-0.41,26.32-4.08,39.17-0.25c6.72,1.91,13.81,3.44,19.65,7.46c-0.09,0.71-0.28,2.13-0.38,2.85   c-8.44,2.79-17.45,1.76-26.11,0.78c-11.29-1.23-23.19-2.54-33.08-8.6C227.13,352.4,227.5,351.28,227.69,350.72z"/>
	<path d="M157.75,368.88c8.85-2.5,18.04-3.71,27.17-4.57c15.69-0.14,31.5-0.97,47.07,1.32c8.59,0.68,17,2.64,25.48,4.11   c0.11,0.49,0.33,1.48,0.43,1.97c-11.75,5.47-24.55,8.2-37.11,11.13c-3.59,1.08-8.26,0.55-10.55,4.1c2.38,3.45,6.66,5.52,7.88,9.72   c-5.12,2.06-10.73,1.7-16.13,1.89c-21.69,0.24-43.39,0.02-65.06-0.76c-4.49-0.53-9.43-0.21-13.32-2.86   c0.51-1.73,1.27-3.48,2.98-4.34c10.2-6.41,22.68-6.38,33.86-10.01c1.83-0.39,3.05-1.77,3.98-3.29c-3.59-1.43-7.51-2.24-10.71-4.53   C152.9,370.29,156.02,369.55,157.75,368.88z"/>
	<path d="M164.78,408.03c11.71-1.01,23.49-0.84,35.23-0.82c4.97,0.16,10-0.17,14.88,0.97c-0.05,0.63-0.15,1.89-0.2,2.52   c-7.45,5.48-16.66,7.63-25.3,10.51c-21.69,6.07-43.78,11.42-66.34,12.66c-7.58-0.19-14.93,2.4-22.52,1.81   c4.3-6.04,10.49-10.43,16.33-14.88C131.13,411.89,148.36,409.66,164.78,408.03z"/>
	<path d="M173.35,433.18c4.64-0.34,9.77-1.85,14.13,0.38c1.51,3.08-2.1,5.16-4.09,6.81c-12.08,8-25.52,13.65-38.82,19.28   c-18.44,7.45-37.06,14.65-56.44,19.33c-9.03,2.12-17.94,4.78-27.11,6.25c-3.23,0.55-6.54,0.32-9.64-0.74   c0.01-2.09-0.27-4.35,1-6.16c3.95-6.74,9.06-12.87,15.14-17.79c9.34-6.92,20.36-11.11,31.37-14.58   C123.1,438.77,148.23,435.1,173.35,433.18z"/>
</svg>