<svg width="30" height="30" xmlns="http://www.w3.org/2000/svg">
 <g>
  <title>Layer 1</title>
  <g id="surface1">
   <path id="svg_1" fill-rule="nonzero" fill="rgb(0%,0%,0%)" d="m14.92727,4.74515c0.09967,-0.11853 0.27476,-0.11044 0.36365,0.02155c0.19933,0.26937 0.31247,0.61147 0.43907,0.93472c0.43369,1.1556 0.88623,2.31658 1.5435,3.32133c0.26398,0.43099 0.57645,0.8135 0.90239,1.17984c0.31247,0.33671 0.62764,0.69767 0.79734,1.16907c0.16701,0.47948 0.11583,1.01283 0.0458,1.50847c-0.07004,0.52527 -0.0862,1.06671 0.01077,1.58659c0.12391,0.60609 0.35557,1.17984 0.64919,1.69165c0.09697,0.1724 0.29092,0.10236 0.43099,0.06734c0.63571,-0.22357 1.31453,-0.15354 1.95562,0.00808c0.28284,0.07273 0.56837,0.14816 0.82966,0.29901c0.54951,0.2963 1.029,0.82697 1.25258,1.50578c0.10505,0.29361 0.03232,0.63841 0.1724,0.91855c0.15354,0.32056 0.44176,0.49834 0.71383,0.64919c0.11313,0.05657 0.22896,0.11313 0.30978,0.22896c-0.44716,0.05387 -0.89431,-0.04848 -1.34146,0.0027c-0.23166,0.02424 -0.41214,0.2155 -0.598,0.36095c-0.41214,0.33941 -0.88892,0.56299 -1.38456,0.63572c-0.68959,0.11852 -1.38996,-0.01616 -2.06338,-0.21011c-0.15085,-0.0458 -0.299,-0.09158 -0.44176,-0.16162c0.34479,-0.03771 0.68959,0.0404 1.03438,0.0404c0.45793,-0.0027 0.92663,0.0431 1.37378,-0.10505c0.33133,-0.08889 0.6438,-0.2586 0.92933,-0.47948c0.20741,-0.15623 0.39059,-0.35557 0.61416,-0.48217c0.18856,-0.10505 0.41753,0.05926 0.58992,-0.10775c-0.04848,-0.19395 -0.20203,-0.30169 -0.3394,-0.39866c-0.37982,-0.24243 -0.8135,-0.39059 -1.24988,-0.36634c-0.11583,-0.01347 -0.15085,0.14546 -0.20203,0.23705c-0.06735,0.17778 -0.22358,0.299 -0.38789,0.28553c-0.14816,-0.01347 -0.29092,-0.06195 -0.43099,-0.11852c-0.12661,-0.05657 -0.16701,-0.22627 -0.24513,-0.3421c-0.14816,-0.04579 -0.29361,0.05388 -0.43907,0.07812c-0.44716,0.13199 -0.92394,-0.02694 -1.30106,-0.32324c-0.26668,-0.2128 -0.52527,-0.48217 -0.64919,-0.84582c-0.05387,-0.15893 -0.10775,-0.33941 -0.24782,-0.41483c-0.29631,-0.14815 -0.62494,-0.19395 -0.9428,-0.15354c-0.18048,0.03502 -0.3852,0.14277 -0.43099,0.37443c-0.03771,0.24513 0.11313,0.45524 0.25051,0.61417c0.44716,0.44985 1.01014,0.68959 1.56235,0.89162c0.21819,0.0862 0.44985,0.12391 0.64918,0.26667c0.09698,0.07004 0.18587,0.19664 0.16432,0.3421c-0.02963,0.20741 -0.15624,0.36634 -0.27746,0.50911c-0.36365,0.41753 -0.82427,0.68689 -1.23372,1.03169c-0.60609,0.40675 -1.29298,0.58992 -1.96371,0.77579c-0.74346,0.18048 -1.4977,0.31516 -2.25193,0.39867c-0.53605,0.0431 -1.07748,0.14546 -1.56504,0.42561c-0.35557,0.20472 -0.68151,0.4687 -1.0263,0.69228c-0.34749,0.21819 -0.7273,0.37981 -1.11789,0.43907c-1.25526,0.22358 -2.45935,0.71922 -3.67152,1.13943c-0.47409,0.16432 -0.94279,0.34749 -1.42766,0.45793c-0.20741,0.02155 -0.41753,0.01347 -0.62494,0c0.01885,-0.07004 0.02963,-0.14277 0.06195,-0.20741c0.40675,-0.62764 0.9859,-1.07479 1.61353,-1.328c0.67342,-0.28283 1.38456,-0.39058 2.08493,-0.52796c0.24512,-0.06195 0.49295,-0.11853 0.72999,-0.22627c0.22358,-0.10236 0.42021,-0.27475 0.58454,-0.47948c0.34748,-0.42561 0.63301,-0.91047 0.95357,-1.36301c0.46331,-0.65727 0.9859,-1.26066 1.58659,-1.73475c0.40675,-0.32863 0.84313,-0.598 1.29298,-0.83235c0.31516,-0.1697 0.6411,-0.35018 0.89162,-0.64649c0.16162,-0.18586 0.24243,-0.47948 0.16432,-0.74077c-0.0862,-0.36634 -0.35018,-0.61416 -0.59531,-0.83235c-0.70306,-0.60069 -1.47884,-1.06401 -2.25194,-1.52194c-0.04579,-0.02963 -0.0835,-0.07542 -0.11852,-0.12122c0.38251,-0.03771 0.75962,0.07003 1.13943,0.07003c0.23436,0.00539 0.46601,0.01886 0.69767,-0.00808c0.10775,-0.01885 0.21819,-0.06465 0.28823,-0.1697c0.02694,-0.09428 0.01347,-0.20472 -0.03502,-0.28823c-0.11044,-0.22896 -0.31516,-0.36096 -0.43907,-0.57645c0.16701,0.05118 0.31786,0.15354 0.47409,0.23974c0.46871,0.26937 0.92933,0.56568 1.40073,0.83235c0.27745,0.16163 0.55221,0.33133 0.84313,0.45793c0.07812,0.03771 0.167,0.02963 0.2532,0.02694c-0.02963,-0.21819 -0.1697,-0.37712 -0.28283,-0.53874c-0.23974,-0.33133 -0.51181,-0.63572 -0.67612,-1.029c-0.14816,-0.36096 -0.26129,-0.74885 -0.30708,-1.14752c-0.01886,-0.09967 -0.02155,-0.22358 -0.10506,-0.27746c-0.52796,-0.41483 -1.05324,-0.82697 -1.58121,-1.2391c-0.10236,-0.07003 -0.18317,-0.18048 -0.23165,-0.30708c-0.09698,-0.23974 -0.22358,-0.47409 -0.23436,-0.74616c0.15085,-0.02424 0.27746,0.08351 0.40136,0.16701c0.35557,0.25591 0.71114,0.51181 1.05593,0.78657c0.14277,0.11583 0.28823,0.23435 0.40944,0.3852c0.10236,0.12391 0.15893,0.29092 0.22627,0.44177c0.05118,-0.22627 0.10505,-0.44985 0.18586,-0.65996c-0.25051,-0.14545 -0.50911,-0.26667 -0.75424,-0.42021c-0.23166,-0.14277 -0.47409,-0.28015 -0.66265,-0.49834c-0.11313,-0.18048 -0.19395,-0.41213 -0.15893,-0.64379c0.1724,-0.02425 0.32324,0.09428 0.46332,0.19395c0.20203,0.16162 0.40136,0.33133 0.60069,0.49834c0.24513,0.19125 0.43907,0.46601 0.5576,0.78656c0.19664,-0.28015 0.35018,-0.61416 0.60878,-0.81889c0.14007,-0.12122 0.32324,-0.12391 0.48756,-0.09697c0.15085,0.02694 0.28823,0.1293 0.44176,0.13468c0.0027,-0.11044 -0.00808,-0.22088 -0.05387,-0.31786c-0.15893,-0.36634 -0.36365,-0.70036 -0.57107,-1.029c-0.2963,-0.46062 -0.60339,-0.91586 -0.94279,-1.33338c-0.15893,-0.19933 -0.35826,-0.36365 -0.46332,-0.61417c-0.1724,-0.38789 -0.19395,-0.84582 -0.13738,-1.27412c0.05657,-0.36365 0.14277,-0.74347 0.37443,-1.00475zm0,0"/>
   <path id="svg_2" fill-rule="nonzero" fill="rgb(0%,0%,0%)" d="m13.8471,6.62535c0.11582,-0.01347 0.23705,0.0027 0.33402,0.0862c0.26668,0.21819 0.48756,0.50372 0.71114,0.77848c0.40136,0.53066 0.77848,1.09095 1.09365,1.69973c0.09967,0.20741 0.2155,0.42021 0.22358,0.66804c-0.09698,0.02155 -0.19395,0 -0.27476,-0.06735c-0.65187,-0.43638 -1.27681,-0.96434 -1.74014,-1.67279c-0.26398,-0.41753 -0.46601,-0.96165 -0.34748,-1.49231zm0,0"/>
   <path id="svg_3" fill-rule="nonzero" fill="rgb(0%,0%,0%)" d="m13.61544,8.34932c0.05926,-0.13738 0.20472,-0.07003 0.29361,-0.01885c0.29092,0.17778 0.54413,0.43368 0.79734,0.67342c0.29092,0.27206 0.51181,0.63302 0.6842,1.01822c0.06465,0.14546 0.11852,0.30169 0.11852,0.46601c-0.14277,0.06196 -0.27206,-0.06195 -0.39598,-0.13738c-0.42291,-0.299 -0.85121,-0.60608 -1.20408,-1.01822c-0.21819,-0.24782 -0.34479,-0.62494 -0.29361,-0.9832zm0,0"/>
   <path id="svg_4" fill-rule="nonzero" fill="rgb(0%,0%,0%)" d="m6.85962,10.04096c0.18586,-0.01347 0.32324,0.15624 0.46871,0.26399c0.65187,0.53335 1.34146,1.00744 2.09301,1.30375c0.16432,0.05926 0.3421,0.11583 0.5145,0.06196c0.0862,-0.16163 0.00808,-0.34479 -0.05118,-0.49564c-0.14007,-0.29631 -0.38251,-0.49026 -0.58184,-0.72461c-0.04848,-0.04848 -0.05926,-0.12391 -0.07003,-0.19395c0.07003,0.0027 0.14546,-0.00539 0.21011,0.03233c0.23705,0.11583 0.45523,0.28284 0.67073,0.44716c0.49564,0.38789 0.97243,0.80811 1.44922,1.23102c0.39058,0.39059 0.74076,0.83775 1.08825,1.2849c0.23705,0.32594 0.50103,0.6411 0.64919,1.04246c-0.0862,0.05926 -0.17779,0.10506 -0.26668,0.15893c-0.01347,0.10775 -0.02155,0.2155 -0.02694,0.32594c-0.27207,-0.02963 -0.52527,-0.15623 -0.78926,-0.23166c-0.1293,-0.04848 -0.26937,-0.06465 -0.39058,-0.14546c-1.4977,-1.07479 -2.9954,-2.15227 -4.49849,-3.22436c-0.1293,-0.0862 -0.1724,-0.26668 -0.23705,-0.41483c-0.08889,-0.23435 -0.19664,-0.46332 -0.23166,-0.72192zm0,0"/>
   <path id="svg_5" fill-rule="nonzero" fill="rgb(0%,0%,0%)" d="m13.29488,11.98043c0.1724,-0.01885 0.32056,0.09967 0.45793,0.20742c0.47409,0.39597 0.90239,0.86467 1.29836,1.3684c0.1266,0.1697 0.27206,0.34749 0.30439,0.58184c-0.15354,0.02425 -0.28823,-0.07812 -0.42292,-0.15085c-0.4256,-0.25051 -0.8539,-0.5549 -1.12058,-1.03708c-0.18047,-0.31516 -0.42021,-0.598 -0.51719,-0.96973zm0,0"/>
   <path id="svg_6" fill-rule="nonzero" fill="rgb(0%,0%,0%)" d="m12.06925,16.38464c0.30169,-0.19125 0.66534,-0.19933 0.99398,-0.11313c0.5118,0.17778 0.96704,0.53336 1.37109,0.9401c0.05387,0.04848 0.09158,0.11313 0.11044,0.18856c-0.17509,0.01347 -0.3421,-0.05118 -0.5145,-0.08081c-0.598,-0.15893 -1.19062,-0.37443 -1.75899,-0.65996c-0.08081,-0.03771 -0.15085,-0.09967 -0.2155,-0.16432c0.0027,-0.02694 0.00808,-0.08081 0.01347,-0.11044zm0,0"/>
   <path id="svg_7" fill-rule="nonzero" fill="rgb(0%,0%,0%)" d="m11.99652,17.38939c0.0862,-0.05926 0.18048,-0.11044 0.28284,-0.11852c0.48486,-0.07273 0.96165,0.10505 1.40073,0.33402c0.10505,0.06196 0.22627,0.09698 0.30978,0.19664c0.03771,0.10236 -0.05388,0.19125 -0.12661,0.22358c-0.17778,0.06735 -0.36903,0.0458 -0.55221,0.02425c-0.36634,-0.06465 -0.72461,-0.18048 -1.06401,-0.35288c-0.10775,-0.06465 -0.2559,-0.13738 -0.25051,-0.30709zm0,0"/>
   <path id="svg_8" fill-rule="nonzero" fill="rgb(0%,0%,0%)" d="m11.35273,18.19751c0.45523,-0.01885 0.91855,-0.1697 1.3684,-0.01078c0.23436,0.07812 0.48217,0.14277 0.6842,0.30978c-0.0027,0.02963 -0.00808,0.08889 -0.01347,0.11853c-0.29361,0.11852 -0.60878,0.07542 -0.91047,0.03502c-0.39598,-0.05388 -0.8108,-0.10775 -1.1556,-0.36096c0.00539,-0.02155 0.01885,-0.07003 0.02694,-0.09158zm0,0"/>
   <path id="svg_9" fill-rule="nonzero" fill="rgb(0%,0%,0%)" d="m8.90953,18.95444c0.30708,-0.10506 0.63033,-0.15624 0.94818,-0.19126c0.54682,-0.00539 1.09903,-0.0404 1.64316,0.05388c0.30169,0.02963 0.59531,0.11044 0.89162,0.1724c0.0027,0.02155 0.01078,0.06195 0.01347,0.0835c-0.40944,0.22627 -0.8566,0.3421 -1.29567,0.46332c-0.12391,0.04579 -0.28823,0.02155 -0.36904,0.1697c0.0835,0.14546 0.23435,0.23166 0.27745,0.40675c-0.18048,0.0862 -0.37712,0.07004 -0.56568,0.07812c-0.75693,0.01078 -1.51386,0 -2.27079,-0.03232c-0.15623,-0.02155 -0.33133,-0.00808 -0.46601,-0.11853c0.01885,-0.07272 0.0431,-0.14545 0.10505,-0.18047c0.35557,-0.26668 0.79195,-0.26668 1.18254,-0.41753c0.06195,-0.01616 0.10505,-0.07543 0.13738,-0.13738c-0.12391,-0.05926 -0.26129,-0.09428 -0.37443,-0.18856c-0.02694,-0.10236 0.08081,-0.13468 0.14277,-0.16162zm0,0"/>
   <path id="svg_10" fill-rule="nonzero" fill="rgb(0%,0%,0%)" d="m9.15466,20.58682c0.40944,-0.0431 0.81889,-0.03502 1.23102,-0.03502c0.1724,0.00539 0.34749,-0.00808 0.51989,0.04041c-0.0027,0.02694 -0.00539,0.07812 -0.00808,0.10505c-0.26129,0.22896 -0.58184,0.31786 -0.88354,0.43907c-0.75693,0.25321 -1.53002,0.47409 -2.31658,0.52796c-0.26668,-0.00808 -0.52258,0.09967 -0.78657,0.07543c0.15085,-0.25321 0.36634,-0.43638 0.56837,-0.62225c0.50103,-0.37173 1.10173,-0.46331 1.67549,-0.53066zm0,0"/>
   <path id="svg_11" fill-rule="nonzero" fill="rgb(0%,0%,0%)" d="m9.45366,21.63467c0.16163,-0.01347 0.3421,-0.07812 0.49295,0.01616c0.05387,0.12661 -0.07273,0.2155 -0.14277,0.28284c-0.42021,0.33402 -0.89161,0.56837 -1.35493,0.80542c-0.64379,0.30978 -1.29567,0.60878 -1.97179,0.80542c-0.31517,0.08889 -0.62764,0.19933 -0.94818,0.2586c-0.11044,0.02424 -0.22627,0.01347 -0.33672,-0.02963c0.0027,-0.0862 -0.00808,-0.18048 0.03502,-0.25591c0.14007,-0.28283 0.31785,-0.53604 0.53066,-0.74346c0.32593,-0.28823 0.71114,-0.46332 1.09364,-0.60609c0.84583,-0.30169 1.72397,-0.45254 2.60212,-0.53336zm0,0"/>
  </g>
  <g id="svg_26">
   <path id="svg_15" fill-rule="nonzero" fill="rgb(0%,0%,0%)" d="m14.92727,4.74515c0.09967,-0.11853 0.27476,-0.11044 0.36365,0.02155c0.19933,0.26937 0.31247,0.61147 0.43907,0.93472c0.43369,1.1556 0.88623,2.31658 1.5435,3.32133c0.26398,0.43099 0.57645,0.8135 0.90239,1.17984c0.31247,0.33671 0.62764,0.69767 0.79734,1.16907c0.16701,0.47948 0.11583,1.01283 0.0458,1.50847c-0.07004,0.52527 -0.0862,1.06671 0.01077,1.58659c0.12391,0.60609 0.35557,1.17984 0.64919,1.69165c0.09697,0.1724 0.29092,0.10236 0.43099,0.06734c0.63571,-0.22357 1.31453,-0.15354 1.95562,0.00808c0.28284,0.07273 0.56837,0.14816 0.82966,0.29901c0.54951,0.2963 1.029,0.82697 1.25258,1.50578c0.10505,0.29361 0.03232,0.63841 0.1724,0.91855c0.15354,0.32056 0.44176,0.49834 0.71383,0.64919c0.11313,0.05657 0.22896,0.11313 0.30978,0.22896c-0.44716,0.05387 -0.89431,-0.04848 -1.34146,0.0027c-0.23166,0.02424 -0.41214,0.2155 -0.598,0.36095c-0.41214,0.33941 -0.88892,0.56299 -1.38456,0.63572c-0.68959,0.11852 -1.38996,-0.01616 -2.06338,-0.21011c-0.15085,-0.0458 -0.299,-0.09158 -0.44176,-0.16162c0.34479,-0.03771 0.68959,0.0404 1.03438,0.0404c0.45793,-0.0027 0.92663,0.0431 1.37378,-0.10505c0.33133,-0.08889 0.6438,-0.2586 0.92933,-0.47948c0.20741,-0.15623 0.39059,-0.35557 0.61416,-0.48217c0.18856,-0.10505 0.41753,0.05926 0.58992,-0.10775c-0.04848,-0.19395 -0.20203,-0.30169 -0.3394,-0.39866c-0.37982,-0.24243 -0.8135,-0.39059 -1.24988,-0.36634c-0.11583,-0.01347 -0.15085,0.14546 -0.20203,0.23705c-0.06735,0.17778 -0.22358,0.299 -0.38789,0.28553c-0.14816,-0.01347 -0.29092,-0.06195 -0.43099,-0.11852c-0.12661,-0.05657 -0.16701,-0.22627 -0.24513,-0.3421c-0.14816,-0.04579 -0.29361,0.05388 -0.43907,0.07812c-0.44716,0.13199 -0.92394,-0.02694 -1.30106,-0.32324c-0.26668,-0.2128 -0.52527,-0.48217 -0.64919,-0.84582c-0.05387,-0.15893 -0.10775,-0.33941 -0.24782,-0.41483c-0.29631,-0.14815 -0.62494,-0.19395 -0.9428,-0.15354c-0.18048,0.03502 -0.3852,0.14277 -0.43099,0.37443c-0.03771,0.24513 0.11313,0.45524 0.25051,0.61417c0.44716,0.44985 1.01014,0.68959 1.56235,0.89162c0.21819,0.0862 0.44985,0.12391 0.64918,0.26667c0.09698,0.07004 0.18587,0.19664 0.16432,0.3421c-0.02963,0.20741 -0.15624,0.36634 -0.27746,0.50911c-0.36365,0.41753 -0.82427,0.68689 -1.23372,1.03169c-0.60609,0.40675 -1.29298,0.58992 -1.96371,0.77579c-0.74346,0.18048 -1.4977,0.31516 -2.25193,0.39867c-0.53605,0.0431 -1.07748,0.14546 -1.56504,0.42561c-0.35557,0.20472 -0.68151,0.4687 -1.0263,0.69228c-0.34749,0.21819 -0.7273,0.37981 -1.11789,0.43907c-1.25526,0.22358 -2.45935,0.71922 -3.67152,1.13943c-0.47409,0.16432 -0.94279,0.34749 -1.42766,0.45793c-0.20741,0.02155 -0.41753,0.01347 -0.62494,0c0.01885,-0.07004 0.02963,-0.14277 0.06195,-0.20741c0.40675,-0.62764 0.9859,-1.07479 1.61353,-1.328c0.67342,-0.28283 1.38456,-0.39058 2.08493,-0.52796c0.24512,-0.06195 0.49295,-0.11853 0.72999,-0.22627c0.22358,-0.10236 0.42021,-0.27475 0.58454,-0.47948c0.34748,-0.42561 0.63301,-0.91047 0.95357,-1.36301c0.46331,-0.65727 0.9859,-1.26066 1.58659,-1.73475c0.40675,-0.32863 0.84313,-0.598 1.29298,-0.83235c0.31516,-0.1697 0.6411,-0.35018 0.89162,-0.64649c0.16162,-0.18586 0.24243,-0.47948 0.16432,-0.74077c-0.0862,-0.36634 -0.35018,-0.61416 -0.59531,-0.83235c-0.70306,-0.60069 -1.47884,-1.06401 -2.25194,-1.52194c-0.04579,-0.02963 -0.0835,-0.07542 -0.11852,-0.12122c0.38251,-0.03771 0.75962,0.07003 1.13943,0.07003c0.23436,0.00539 0.46601,0.01886 0.69767,-0.00808c0.10775,-0.01885 0.21819,-0.06465 0.28823,-0.1697c0.02694,-0.09428 0.01347,-0.20472 -0.03502,-0.28823c-0.11044,-0.22896 -0.31516,-0.36096 -0.43907,-0.57645c0.16701,0.05118 0.31786,0.15354 0.47409,0.23974c0.46871,0.26937 0.92933,0.56568 1.40073,0.83235c0.27745,0.16163 0.55221,0.33133 0.84313,0.45793c0.07812,0.03771 0.167,0.02963 0.2532,0.02694c-0.02963,-0.21819 -0.1697,-0.37712 -0.28283,-0.53874c-0.23974,-0.33133 -0.51181,-0.63572 -0.67612,-1.029c-0.14816,-0.36096 -0.26129,-0.74885 -0.30708,-1.14752c-0.01886,-0.09967 -0.02155,-0.22358 -0.10506,-0.27746c-0.52796,-0.41483 -1.05324,-0.82697 -1.58121,-1.2391c-0.10236,-0.07003 -0.18317,-0.18048 -0.23165,-0.30708c-0.09698,-0.23974 -0.22358,-0.47409 -0.23436,-0.74616c0.15085,-0.02424 0.27746,0.08351 0.40136,0.16701c0.35557,0.25591 0.71114,0.51181 1.05593,0.78657c0.14277,0.11583 0.28823,0.23435 0.40944,0.3852c0.10236,0.12391 0.15893,0.29092 0.22627,0.44177c0.05118,-0.22627 0.10505,-0.44985 0.18586,-0.65996c-0.25051,-0.14545 -0.50911,-0.26667 -0.75424,-0.42021c-0.23166,-0.14277 -0.47409,-0.28015 -0.66265,-0.49834c-0.11313,-0.18048 -0.19395,-0.41213 -0.15893,-0.64379c0.1724,-0.02425 0.32324,0.09428 0.46332,0.19395c0.20203,0.16162 0.40136,0.33133 0.60069,0.49834c0.24513,0.19125 0.43907,0.46601 0.5576,0.78656c0.19664,-0.28015 0.35018,-0.61416 0.60878,-0.81889c0.14007,-0.12122 0.32324,-0.12391 0.48756,-0.09697c0.15085,0.02694 0.28823,0.1293 0.44176,0.13468c0.0027,-0.11044 -0.00808,-0.22088 -0.05387,-0.31786c-0.15893,-0.36634 -0.36365,-0.70036 -0.57107,-1.029c-0.2963,-0.46062 -0.60339,-0.91586 -0.94279,-1.33338c-0.15893,-0.19933 -0.35826,-0.36365 -0.46332,-0.61417c-0.1724,-0.38789 -0.19395,-0.84582 -0.13738,-1.27412c0.05657,-0.36365 0.14277,-0.74347 0.37443,-1.00475zm0,0"/>
   <path id="svg_16" fill-rule="nonzero" fill="rgb(0%,0%,0%)" d="m13.8471,6.62535c0.11582,-0.01347 0.23705,0.0027 0.33402,0.0862c0.26668,0.21819 0.48756,0.50372 0.71114,0.77848c0.40136,0.53066 0.77848,1.09095 1.09365,1.69973c0.09967,0.20741 0.2155,0.42021 0.22358,0.66804c-0.09698,0.02155 -0.19395,0 -0.27476,-0.06735c-0.65187,-0.43638 -1.27681,-0.96434 -1.74014,-1.67279c-0.26398,-0.41753 -0.46601,-0.96165 -0.34748,-1.49231zm0,0"/>
   <path id="svg_17" fill-rule="nonzero" fill="rgb(0%,0%,0%)" d="m13.61544,8.34932c0.05926,-0.13738 0.20472,-0.07003 0.29361,-0.01885c0.29092,0.17778 0.54413,0.43368 0.79734,0.67342c0.29092,0.27206 0.51181,0.63302 0.6842,1.01822c0.06465,0.14546 0.11852,0.30169 0.11852,0.46601c-0.14277,0.06196 -0.27206,-0.06195 -0.39598,-0.13738c-0.42291,-0.299 -0.85121,-0.60608 -1.20408,-1.01822c-0.21819,-0.24782 -0.34479,-0.62494 -0.29361,-0.9832zm0,0"/>
   <path id="svg_18" fill-rule="nonzero" fill="rgb(0%,0%,0%)" d="m6.85962,10.04096c0.18586,-0.01347 0.32324,0.15624 0.46871,0.26399c0.65187,0.53335 1.34146,1.00744 2.09301,1.30375c0.16432,0.05926 0.3421,0.11583 0.5145,0.06196c0.0862,-0.16163 0.00808,-0.34479 -0.05118,-0.49564c-0.14007,-0.29631 -0.38251,-0.49026 -0.58184,-0.72461c-0.04848,-0.04848 -0.05926,-0.12391 -0.07003,-0.19395c0.07003,0.0027 0.14546,-0.00539 0.21011,0.03233c0.23705,0.11583 0.45523,0.28284 0.67073,0.44716c0.49564,0.38789 0.97243,0.80811 1.44922,1.23102c0.39058,0.39059 0.74076,0.83775 1.08825,1.2849c0.23705,0.32594 0.50103,0.6411 0.64919,1.04246c-0.0862,0.05926 -0.17779,0.10506 -0.26668,0.15893c-0.01347,0.10775 -0.02155,0.2155 -0.02694,0.32594c-0.27207,-0.02963 -0.52527,-0.15623 -0.78926,-0.23166c-0.1293,-0.04848 -0.26937,-0.06465 -0.39058,-0.14546c-1.4977,-1.07479 -2.9954,-2.15227 -4.49849,-3.22436c-0.1293,-0.0862 -0.1724,-0.26668 -0.23705,-0.41483c-0.08889,-0.23435 -0.19664,-0.46332 -0.23166,-0.72192zm0,0"/>
   <path id="svg_19" fill-rule="nonzero" fill="rgb(0%,0%,0%)" d="m13.29488,11.98043c0.1724,-0.01885 0.32056,0.09967 0.45793,0.20742c0.47409,0.39597 0.90239,0.86467 1.29836,1.3684c0.1266,0.1697 0.27206,0.34749 0.30439,0.58184c-0.15354,0.02425 -0.28823,-0.07812 -0.42292,-0.15085c-0.4256,-0.25051 -0.8539,-0.5549 -1.12058,-1.03708c-0.18047,-0.31516 -0.42021,-0.598 -0.51719,-0.96973zm0,0"/>
   <path id="svg_20" fill-rule="nonzero" fill="rgb(0%,0%,0%)" d="m12.06925,16.38464c0.30169,-0.19125 0.66534,-0.19933 0.99398,-0.11313c0.5118,0.17778 0.96704,0.53336 1.37109,0.9401c0.05387,0.04848 0.09158,0.11313 0.11044,0.18856c-0.17509,0.01347 -0.3421,-0.05118 -0.5145,-0.08081c-0.598,-0.15893 -1.19062,-0.37443 -1.75899,-0.65996c-0.08081,-0.03771 -0.15085,-0.09967 -0.2155,-0.16432c0.0027,-0.02694 0.00808,-0.08081 0.01347,-0.11044zm0,0"/>
   <path id="svg_21" fill-rule="nonzero" fill="rgb(0%,0%,0%)" d="m11.99652,17.38939c0.0862,-0.05926 0.18048,-0.11044 0.28284,-0.11852c0.48486,-0.07273 0.96165,0.10505 1.40073,0.33402c0.10505,0.06196 0.22627,0.09698 0.30978,0.19664c0.03771,0.10236 -0.05388,0.19125 -0.12661,0.22358c-0.17778,0.06735 -0.36903,0.0458 -0.55221,0.02425c-0.36634,-0.06465 -0.72461,-0.18048 -1.06401,-0.35288c-0.10775,-0.06465 -0.2559,-0.13738 -0.25051,-0.30709zm0,0"/>
   <path id="svg_22" fill-rule="nonzero" fill="rgb(0%,0%,0%)" d="m11.35273,18.19751c0.45523,-0.01885 0.91855,-0.1697 1.3684,-0.01078c0.23436,0.07812 0.48217,0.14277 0.6842,0.30978c-0.0027,0.02963 -0.00808,0.08889 -0.01347,0.11853c-0.29361,0.11852 -0.60878,0.07542 -0.91047,0.03502c-0.39598,-0.05388 -0.8108,-0.10775 -1.1556,-0.36096c0.00539,-0.02155 0.01885,-0.07003 0.02694,-0.09158zm0,0"/>
   <path id="svg_23" fill-rule="nonzero" fill="rgb(0%,0%,0%)" d="m8.90953,18.95444c0.30708,-0.10506 0.63033,-0.15624 0.94818,-0.19126c0.54682,-0.00539 1.09903,-0.0404 1.64316,0.05388c0.30169,0.02963 0.59531,0.11044 0.89162,0.1724c0.0027,0.02155 0.01078,0.06195 0.01347,0.0835c-0.40944,0.22627 -0.8566,0.3421 -1.29567,0.46332c-0.12391,0.04579 -0.28823,0.02155 -0.36904,0.1697c0.0835,0.14546 0.23435,0.23166 0.27745,0.40675c-0.18048,0.0862 -0.37712,0.07004 -0.56568,0.07812c-0.75693,0.01078 -1.51386,0 -2.27079,-0.03232c-0.15623,-0.02155 -0.33133,-0.00808 -0.46601,-0.11853c0.01885,-0.07272 0.0431,-0.14545 0.10505,-0.18047c0.35557,-0.26668 0.79195,-0.26668 1.18254,-0.41753c0.06195,-0.01616 0.10505,-0.07543 0.13738,-0.13738c-0.12391,-0.05926 -0.26129,-0.09428 -0.37443,-0.18856c-0.02694,-0.10236 0.08081,-0.13468 0.14277,-0.16162zm0,0"/>
   <path id="svg_24" fill-rule="nonzero" fill="rgb(0%,0%,0%)" d="m9.15466,20.58682c0.40944,-0.0431 0.81889,-0.03502 1.23102,-0.03502c0.1724,0.00539 0.34749,-0.00808 0.51989,0.04041c-0.0027,0.02694 -0.00539,0.07812 -0.00808,0.10505c-0.26129,0.22896 -0.58184,0.31786 -0.88354,0.43907c-0.75693,0.25321 -1.53002,0.47409 -2.31658,0.52796c-0.26668,-0.00808 -0.52258,0.09967 -0.78657,0.07543c0.15085,-0.25321 0.36634,-0.43638 0.56837,-0.62225c0.50103,-0.37173 1.10173,-0.46331 1.67549,-0.53066zm0,0"/>
   <path id="svg_25" fill-rule="nonzero" fill="rgb(0%,0%,0%)" d="m9.45366,21.63467c0.16163,-0.01347 0.3421,-0.07812 0.49295,0.01616c0.05387,0.12661 -0.07273,0.2155 -0.14277,0.28284c-0.42021,0.33402 -0.89161,0.56837 -1.35493,0.80542c-0.64379,0.30978 -1.29567,0.60878 -1.97179,0.80542c-0.31517,0.08889 -0.62764,0.19933 -0.94818,0.2586c-0.11044,0.02424 -0.22627,0.01347 -0.33672,-0.02963c0.0027,-0.0862 -0.00808,-0.18048 0.03502,-0.25591c0.14007,-0.28283 0.31785,-0.53604 0.53066,-0.74346c0.32593,-0.28823 0.71114,-0.46332 1.09364,-0.60609c0.84583,-0.30169 1.72397,-0.45254 2.60212,-0.53336zm0,0"/>
  </g>
  <line stroke-linecap="null" stroke-linejoin="null" id="svg_33" y2="26.31231" x2="22.53113" y1="3.62519" x1="5.03141" opacity="undefined" stroke-dasharray="null" stroke-width="2" stroke="#888888" fill="none"/>
  <line stroke-linecap="null" stroke-linejoin="null" id="svg_34" y2="3.87518" x2="21.84364" y1="25.99982" x1="6.0939" opacity="undefined" stroke-dasharray="null" stroke-width="2" stroke="#888888" fill="none"/>
 </g>
</svg>