<?xml version="1.0" standalone="no"?>
<!DOCTYPE svg PUBLIC "-//W3C//DTD SVG 20010904//EN"
 "http://www.w3.org/TR/2001/REC-SVG-20010904/DTD/svg10.dtd">
<svg version="1.0" xmlns="http://www.w3.org/2000/svg"
 width="340.000000pt" height="344.000000pt" viewBox="0 0 340.000000 344.000000"
 preserveAspectRatio="xMidYMid meet">

<g transform="translate(0.000000,344.000000) scale(0.100000,-0.100000)"
fill="#000000" stroke="none">
<path d="M0 1705 l0 -1705 1700 0 1700 0 0 1705 0 1705 -1700 0 -1700 0 0
-1705z m1727 1569 l16 -26 14 26 c15 29 35 33 53 11 10 -12 8 -19 -13 -37
l-25 -23 31 -10 c34 -11 41 -23 27 -45 -8 -13 -13 -13 -40 2 l-30 17 0 -33 c0
-21 -6 -36 -15 -40 -19 -7 -29 15 -23 49 5 25 -5 34 -17 15 -10 -15 -52 -12
-59 5 -6 16 21 35 50 35 15 0 14 3 -6 24 -24 26 -22 56 4 56 9 0 23 -12 33
-26z m-283 0 c20 -8 21 -38 1 -54 -17 -14 -21 -35 -4 -25 5 4 21 4 35 1 19 -5
25 -12 22 -29 -3 -22 -12 -24 -58 -11 -21 5 -23 4 -12 -7 6 -7 12 -26 12 -42
0 -24 -4 -28 -22 -25 -18 2 -24 11 -26 35 l-3 33 -30 -22 c-26 -19 -31 -20
-39 -8 -17 26 -11 41 23 55 17 8 27 14 21 15 -5 0 -20 9 -33 21 -17 16 -20 24
-10 35 16 19 29 18 56 -8 22 -21 23 -21 23 -2 0 11 5 25 12 32 14 14 12 14 32
6z m138 -46 c-16 -16 -37 4 -28 28 6 16 8 16 23 1 13 -13 15 -19 5 -29z m503
-5 l6 -26 15 22 c18 25 49 28 58 4 7 -17 -16 -43 -38 -43 -6 0 2 -11 18 -23
20 -16 27 -29 23 -40 -8 -21 -31 -22 -47 -2 -18 22 -28 18 -32 -12 -2 -21 -9
-29 -27 -31 -22 -3 -23 -1 -19 33 4 32 2 36 -17 31 -27 -7 -48 7 -43 30 2 13
13 20 36 22 32 3 32 3 17 32 -14 26 -13 30 2 39 22 12 39 -1 48 -36z m-155 17
c0 -21 -15 -27 -25 -10 -7 12 2 30 16 30 5 0 9 -9 9 -20z m-698 -82 c-10 -10
-15 -10 -21 1 -5 8 -7 21 -4 28 5 12 8 12 21 -1 13 -13 14 -18 4 -28z m1034
-15 c-5 -12 -10 -13 -18 -5 -8 8 -8 15 3 28 15 18 25 4 15 -23z m-1177 18 c11
-7 11 -15 3 -40 -11 -30 -10 -31 13 -25 36 9 54 -1 48 -25 -4 -15 -13 -21 -34
-21 l-30 0 17 -31 c13 -26 14 -33 2 -40 -22 -15 -34 -10 -47 17 l-12 27 -23
-22 c-22 -21 -23 -21 -40 -2 -17 19 -17 20 5 42 13 13 18 24 12 26 -27 9 -44
30 -37 46 8 22 32 22 56 0 17 -15 18 -15 18 1 0 21 18 56 28 56 4 0 13 -4 21
-9z m1325 -27 c3 -9 6 -25 6 -36 0 -20 1 -20 18 -5 24 22 48 22 56 0 8 -20
-17 -43 -47 -43 -17 0 -16 -3 7 -21 30 -23 34 -44 9 -53 -11 -5 -24 2 -39 21
-21 25 -23 26 -24 8 0 -24 -18 -45 -37 -45 -18 0 -16 31 3 58 15 21 14 22 -20
22 -30 0 -36 4 -36 21 0 18 5 21 35 17 39 -4 39 -4 24 23 -6 12 -8 27 -5 35 7
19 42 18 50 -2z m-716 -29 c16 -35 68 -36 84 0 11 25 13 25 97 19 47 -3 91 -9
96 -12 6 -4 17 -7 25 -7 8 0 17 -13 20 -30 6 -37 42 -46 72 -18 22 19 46 19
93 -1 139 -61 135 -58 135 -88 0 -37 43 -57 69 -34 22 20 55 11 112 -30 26
-19 49 -34 53 -34 3 0 15 -9 26 -20 14 -14 18 -28 14 -48 -7 -36 30 -61 65
-43 19 10 29 3 100 -70 78 -78 80 -82 65 -104 -22 -33 -1 -65 42 -65 33 0 48
-13 84 -75 64 -112 61 -104 45 -129 -24 -36 -3 -75 40 -76 25 0 39 -30 66
-133 l20 -78 -23 -18 c-19 -16 -21 -22 -10 -45 6 -14 22 -28 36 -32 28 -7 39
-47 40 -154 1 -60 -1 -66 -25 -82 -21 -13 -25 -22 -21 -43 2 -15 14 -31 26
-37 23 -10 25 -27 13 -124 -13 -101 -18 -114 -43 -114 -37 0 -52 -46 -25 -74
18 -19 19 -27 10 -61 -6 -22 -15 -44 -20 -49 -5 -6 -9 -16 -9 -23 0 -7 -8 -31
-17 -53 -15 -33 -23 -40 -46 -40 -39 0 -57 -39 -34 -74 10 -15 13 -27 7 -31
-6 -3 -10 -15 -10 -26 0 -10 -4 -19 -10 -19 -5 0 -10 -7 -10 -15 0 -8 -4 -15
-10 -15 -5 0 -10 -6 -10 -14 0 -7 -15 -28 -32 -47 -26 -27 -40 -33 -64 -31
-24 2 -33 -2 -44 -23 -10 -19 -11 -28 -2 -37 7 -7 12 -17 12 -23 0 -14 -56
-75 -69 -75 -6 0 -11 -7 -11 -15 0 -8 -7 -15 -15 -15 -8 0 -15 -4 -15 -9 0 -5
-12 -16 -26 -26 -20 -13 -32 -15 -49 -7 -30 14 -64 -16 -58 -50 3 -18 -5 -29
-36 -51 -21 -15 -44 -27 -49 -27 -6 0 -12 -3 -14 -7 -1 -5 -21 -17 -43 -29
-37 -19 -43 -19 -63 -6 -31 20 -72 2 -72 -32 0 -29 -28 -49 -95 -65 -27 -7
-54 -16 -60 -20 -25 -20 -54 -18 -75 4 -28 30 -65 23 -79 -16 -6 -17 -18 -29
-28 -30 -10 0 -27 -2 -38 -4 -11 -1 -53 -6 -92 -10 -61 -6 -73 -5 -73 8 0 19
-19 34 -50 39 -19 2 -28 -3 -38 -24 -11 -23 -18 -26 -45 -23 -18 2 -52 7 -77
10 -95 11 -106 16 -117 44 -13 36 -48 46 -73 21 -18 -18 -45 -20 -80 -7 -20 7
-94 31 -100 32 -26 4 -50 30 -50 54 0 40 -41 62 -69 37 -18 -16 -22 -17 -48
-2 -15 8 -36 18 -45 22 -10 3 -18 10 -18 15 0 5 -5 9 -11 9 -6 0 -28 12 -49
28 -32 23 -38 31 -33 54 8 40 -18 63 -57 49 -28 -9 -33 -6 -105 64 -41 41 -75
79 -75 85 0 6 5 19 12 30 17 27 -16 64 -50 55 -28 -7 -46 9 -78 70 -11 22 -31
57 -43 79 -21 36 -21 39 -5 57 26 28 5 69 -35 69 -26 0 -31 5 -46 47 -10 27
-20 55 -23 63 -3 8 -7 20 -8 25 -1 6 -3 12 -4 15 -12 26 -6 68 12 87 20 21 20
24 4 48 -9 14 -25 25 -35 25 -20 0 -28 25 -38 115 -11 100 -10 109 20 123 36
17 37 58 2 74 -22 10 -30 31 -27 68 12 126 25 170 51 170 41 0 56 58 22 82
-17 12 -18 20 -11 54 5 22 16 54 25 70 8 16 15 34 15 40 0 5 6 22 13 37 9 19
19 27 39 27 37 0 54 32 38 70 -10 23 -9 34 3 57 43 83 63 116 74 120 7 3 13
11 13 18 0 10 9 12 33 8 46 -7 73 23 55 62 -10 23 -10 29 0 33 6 2 12 8 12 12
0 11 90 101 116 116 13 7 26 8 46 0 37 -14 70 14 62 54 -5 23 0 32 28 54 19
14 39 26 43 26 4 0 23 11 40 24 37 28 85 44 85 28 0 -17 37 -24 60 -12 12 7
20 21 20 38 0 21 7 30 33 40 17 8 41 17 52 22 89 38 135 43 162 17 19 -17 27
-18 47 -9 14 6 26 21 28 34 4 27 22 32 137 36 85 3 88 2 99 -23z m-800 -89 c3
-12 -1 -17 -10 -14 -7 3 -15 13 -16 22 -3 12 1 17 10 14 7 -3 15 -13 16 -22z
m1692 -8 c0 -7 -5 -20 -10 -28 -7 -12 -12 -12 -21 -3 -9 9 -9 16 1 28 15 18
30 20 30 3z m-1802 -55 c3 -28 6 -31 25 -24 30 11 47 3 47 -20 0 -14 -9 -21
-30 -25 l-30 -6 20 -26 c15 -19 17 -28 9 -38 -13 -16 -43 -3 -54 23 -6 16 -8
14 -21 -9 -8 -16 -21 -28 -30 -28 -20 0 -30 29 -16 50 9 16 7 20 -18 29 -20 6
-30 17 -30 30 0 24 32 36 60 21 18 -10 20 -8 20 18 0 33 8 44 30 40 9 -2 16
-16 18 -35z m1930 -28 c-4 -39 -4 -39 22 -25 24 13 50 3 50 -20 0 -19 -19 -30
-52 -30 -20 0 -20 -1 -5 -18 21 -23 22 -48 3 -55 -16 -6 -29 6 -40 37 -6 18
-8 18 -23 -5 -24 -35 -36 -40 -52 -24 -13 13 -12 18 7 38 28 30 28 37 -3 37
-30 0 -44 26 -24 46 12 12 18 12 42 -1 27 -14 27 -14 27 21 0 30 3 34 26 34
24 0 26 -3 22 -35z m-2093 -115 c11 -17 -5 -32 -21 -19 -8 6 -14 15 -14 20 0
12 27 11 35 -1z m2235 -35 c0 -8 -7 -15 -15 -15 -8 0 -15 7 -15 15 0 8 7 15
15 15 8 0 15 -7 15 -15z m-2332 -58 c4 -32 5 -32 37 -11 13 9 29 13 35 9 19
-12 10 -44 -17 -58 l-27 -14 23 -12 c14 -8 21 -20 19 -33 -4 -30 -24 -33 -45
-9 -17 20 -17 20 -30 -9 -8 -19 -19 -30 -33 -30 -23 0 -27 28 -9 61 10 19 8
20 -23 17 -29 -3 -33 0 -33 22 0 22 4 25 32 24 30 -2 32 0 26 28 -4 20 -1 33
8 39 21 13 34 5 37 -24z m2436 -10 c15 -11 16 -17 7 -35 -16 -30 -15 -32 25
-32 31 0 35 -3 32 -22 -2 -19 -9 -23 -35 -22 -32 2 -43 -9 -23 -21 6 -3 10
-17 10 -31 0 -19 -5 -24 -25 -24 -20 0 -27 6 -32 30 l-6 31 -21 -21 c-27 -25
-42 -25 -51 -3 -4 12 2 25 19 39 l24 22 -24 11 c-26 12 -32 46 -10 54 8 3 26
-3 40 -14 26 -20 26 -20 26 -1 0 25 10 52 19 52 4 0 15 -6 25 -13z m-2565
-171 c8 -10 9 -16 1 -21 -13 -8 -30 3 -30 21 0 18 14 18 29 0z m2671 -51 c-7
-8 -16 -15 -21 -15 -14 0 -11 38 4 43 20 7 31 -11 17 -28z m-2740 -66 c0 -26
17 -33 25 -10 6 21 31 35 46 25 16 -10 10 -32 -15 -52 l-24 -19 34 -12 c36
-13 39 -18 24 -41 -8 -13 -13 -13 -40 2 l-30 17 0 -34 c0 -31 -3 -35 -26 -35
-24 0 -26 3 -22 34 4 33 3 34 -28 29 -23 -4 -33 -1 -38 12 -9 24 1 35 35 35
34 0 35 2 12 37 -16 24 -16 26 2 39 22 16 45 2 45 -27z m2824 -5 c21 -8 20
-33 -1 -56 -15 -17 -15 -18 9 -18 30 0 51 -21 42 -44 -7 -18 -27 -21 -53 -6
-16 8 -18 5 -17 -28 1 -31 -2 -37 -19 -37 -15 0 -21 8 -23 33 -4 37 -4 37 -38
15 -22 -14 -27 -14 -35 -2 -16 25 -10 39 21 46 35 6 38 18 10 33 -11 6 -20 17
-20 26 0 25 30 28 53 5 l23 -21 11 30 c12 32 13 33 37 24z m-2899 -205 c-9
-14 -45 -11 -45 4 0 8 3 17 6 20 10 9 46 -12 39 -24z m2975 -28 c0 -6 -5 -13
-10 -16 -15 -9 -43 3 -35 15 8 13 45 13 45 1z m-3032 -80 l18 -30 11 30 c12
31 33 38 52 15 8 -10 6 -19 -10 -40 -18 -22 -18 -26 -4 -26 28 0 55 -19 49
-35 -7 -18 -45 -20 -63 -2 -10 10 -11 3 -5 -31 7 -42 6 -44 -17 -40 -19 2 -25
10 -27 36 -3 31 -4 32 -25 17 -28 -19 -43 -19 -51 1 -9 23 12 44 43 44 22 1
24 2 9 11 -29 16 -41 47 -26 64 19 21 26 19 46 -14z m3003 -33 c17 -33 17 -33
40 -4 17 21 24 24 35 15 19 -15 18 -38 -3 -61 -15 -17 -15 -18 5 -18 30 0 45
-32 27 -56 -13 -18 -14 -18 -46 5 -24 18 -31 20 -26 7 4 -9 2 -27 -3 -40 -7
-19 -14 -23 -31 -19 -18 5 -20 11 -16 40 l6 34 -35 -7 c-30 -5 -34 -4 -34 15
0 16 8 23 30 28 33 6 37 15 15 33 -25 21 -16 45 17 49 4 1 13 -9 19 -21z
m-3033 -196 c2 -7 -6 -12 -17 -12 -21 0 -27 11 -14 24 9 9 26 2 31 -12z m3128
-33 c8 -14 -18 -31 -30 -19 -9 9 0 30 14 30 5 0 12 -5 16 -11z m-3066 -66 c0
-8 -5 -23 -10 -34 -10 -17 -7 -19 20 -19 19 0 33 -6 37 -16 8 -22 -16 -36 -50
-29 l-28 5 18 -30 c14 -24 15 -32 5 -42 -18 -18 -46 2 -50 36 l-3 27 -26 -27
c-22 -24 -26 -25 -40 -11 -19 19 -11 45 18 55 21 8 21 9 -5 25 -14 10 -26 24
-26 33 0 26 30 28 56 4 l24 -23 0 26 c0 27 25 48 47 40 7 -3 13 -12 13 -20z
m3022 -54 l10 -30 20 20 c22 24 29 26 46 9 18 -18 15 -27 -20 -48 -19 -11 -26
-20 -17 -20 9 0 24 -9 34 -20 16 -18 16 -20 1 -36 -16 -16 -19 -15 -47 12
l-29 28 0 -25 c0 -30 -17 -50 -36 -42 -16 6 -19 39 -4 48 21 13 9 25 -25 25
-28 0 -35 4 -35 20 0 16 7 20 35 20 32 0 35 2 25 19 -16 31 -12 51 11 51 13 0
23 -10 31 -31z m-3089 -194 c1 -5 -6 -11 -15 -13 -11 -2 -18 3 -18 13 0 17 30
18 33 0z m3126 -34 c13 -8 8 -31 -7 -31 -17 1 -34 19 -28 29 9 13 16 14 35 2z
m-3051 -77 c-4 -31 -2 -33 17 -28 37 12 50 9 50 -11 0 -15 -8 -21 -32 -23 -38
-4 -41 -12 -13 -37 25 -22 25 -31 3 -40 -12 -4 -24 2 -39 20 l-20 26 -14 -26
c-15 -28 -32 -32 -50 -10 -9 11 -7 19 14 40 l25 25 -24 6 c-36 9 -47 27 -31
50 14 19 15 18 46 -5 31 -22 32 -22 25 -2 -8 28 11 62 31 54 11 -4 15 -15 12
-39z m2980 -36 l3 -38 30 22 c26 19 31 20 39 8 17 -26 11 -41 -21 -52 l-30
-10 20 -20 c26 -23 27 -44 4 -53 -12 -4 -24 2 -39 20 l-20 26 -12 -26 c-6 -14
-19 -25 -27 -25 -27 0 -29 30 -5 56 l23 24 -36 0 c-39 0 -50 9 -41 35 5 13 15
16 41 12 31 -5 33 -4 27 18 -7 30 3 47 24 43 12 -2 18 -15 20 -40z m-2978
-192 c0 -21 -20 -30 -33 -17 -9 9 -8 14 3 21 21 14 30 12 30 -4z m2970 -46 c0
-14 -15 -19 -29 -10 -17 10 -5 31 14 23 8 -3 15 -9 15 -13z m-2872 -48 c3 -32
4 -33 22 -17 24 21 55 16 55 -10 0 -14 -10 -23 -33 -31 l-32 -10 27 -21 c26
-20 27 -22 11 -38 -16 -17 -18 -16 -41 9 l-25 27 -7 -31 c-5 -21 -12 -30 -26
-30 -27 0 -34 26 -15 55 16 25 16 25 -13 25 -33 0 -44 10 -35 34 7 19 45 21
62 4 15 -15 16 -3 2 22 -14 26 -2 52 24 48 16 -2 22 -11 24 -36z m2779 -37
c-6 -39 -5 -40 25 -24 18 9 24 8 35 -6 16 -23 0 -45 -33 -45 -23 0 -23 0 -6
-30 16 -30 16 -32 -3 -46 -18 -14 -22 -13 -37 7 -10 12 -18 28 -18 36 0 11 -6
8 -18 -8 -12 -14 -25 -20 -35 -16 -23 9 -21 33 4 50 21 15 20 15 -8 29 -15 7
-28 20 -28 28 0 22 34 24 56 4 18 -17 19 -16 19 19 0 33 3 37 26 37 25 0 26
-2 21 -35z m68 -105 c3 -5 1 -10 -4 -10 -6 0 -11 5 -11 10 0 6 2 10 4 10 3 0
8 -4 11 -10z m-2795 -84 c0 -17 -27 -29 -35 -16 -4 6 -3 15 0 20 9 15 35 12
35 -4z m108 -38 c7 -7 12 -20 12 -31 0 -18 1 -17 26 2 21 16 30 18 40 10 22
-18 17 -37 -13 -53 l-28 -14 28 -11 c28 -11 33 -26 17 -51 -8 -12 -13 -11 -39
8 l-30 22 -3 -33 c-2 -22 -9 -33 -22 -35 -24 -5 -36 16 -26 44 8 21 6 23 -23
26 -27 2 -33 8 -35 31 -3 24 0 27 28 27 27 0 30 2 24 24 -10 41 17 61 44 34z
m2552 -4 c0 -9 -7 -14 -17 -12 -25 5 -28 28 -4 28 12 0 21 -6 21 -16z m-100
-40 c0 -8 -5 -24 -10 -35 -10 -17 -7 -19 25 -19 32 0 36 -3 33 -22 -2 -19 -9
-23 -40 -22 -33 1 -36 -1 -28 -17 19 -34 12 -59 -15 -59 -21 0 -25 5 -25 30 0
35 -2 36 -37 13 -24 -16 -26 -16 -39 2 -16 22 -10 33 23 46 l24 9 -27 23 c-16
14 -24 29 -20 35 11 18 33 14 55 -10 22 -23 20 -24 36 27 6 20 45 20 45 -1z
m40 -144 c0 -5 -4 -10 -10 -10 -5 0 -10 5 -10 10 0 6 5 10 10 10 6 0 10 -4 10
-10z m-2390 -55 c0 -8 -7 -15 -15 -15 -16 0 -20 12 -8 23 11 12 23 8 23 -8z
m136 -37 c6 -20 7 -19 28 6 14 19 27 25 39 21 23 -10 22 -21 -8 -50 l-24 -25
22 0 c32 0 50 -15 45 -36 -4 -20 -28 -23 -62 -9 -16 7 -18 5 -13 -16 7 -28 -1
-43 -25 -47 -19 -3 -32 29 -23 58 6 18 4 19 -19 9 -31 -15 -56 -6 -56 21 0 19
19 26 58 21 17 -2 15 14 -3 29 -18 15 -20 47 -2 53 16 6 35 -10 43 -35z m2094
1 c0 -12 -27 -11 -35 1 -11 17 5 32 21 19 8 -6 14 -15 14 -20z m-195 -17 c11
-25 25 -29 25 -8 0 20 25 37 44 30 22 -8 20 -27 -5 -50 l-21 -19 33 -5 c28 -4
34 -9 34 -30 0 -26 -20 -31 -55 -16 -12 5 -15 -1 -15 -26 0 -27 -4 -34 -22
-36 -20 -3 -23 1 -23 33 0 32 -2 35 -19 25 -33 -17 -51 -12 -51 14 0 18 7 25
30 30 l30 6 -20 20 c-20 20 -26 41 -13 54 13 12 38 1 48 -22z m-1550 -142 c4
-6 0 -22 -9 -35 -21 -32 -20 -36 7 -30 29 7 52 -8 43 -30 -5 -14 -14 -16 -41
-12 -33 5 -34 5 -23 -18 13 -28 5 -55 -16 -55 -19 0 -39 36 -30 52 5 8 2 9
-12 3 -42 -17 -61 -17 -68 1 -8 21 17 44 48 44 19 1 18 3 -6 21 -32 24 -36 44
-11 54 13 4 25 -2 40 -22 21 -25 23 -26 23 -7 0 35 40 59 55 34z m1370 0 c3
-5 1 -10 -4 -10 -6 0 -11 5 -11 10 0 6 2 10 4 10 3 0 8 -4 11 -10z m-99 -39
l11 -33 17 26 c19 30 44 34 53 9 4 -11 -3 -24 -21 -38 l-28 -22 31 -6 c23 -5
31 -12 31 -27 0 -28 -25 -36 -54 -16 -24 15 -25 15 -28 -16 -3 -36 -16 -44
-41 -26 -15 12 -15 16 -3 40 l14 27 -36 -2 c-31 -2 -37 1 -37 18 0 15 8 21 32
23 l31 3 -16 30 c-15 26 -15 31 -2 39 22 14 34 7 46 -29z m-1476 20 c0 -5 -6
-14 -14 -20 -16 -13 -32 2 -21 19 8 12 35 13 35 1z m1668 -35 c3 -13 -1 -17
-14 -14 -11 2 -20 11 -22 22 -3 13 1 17 14 14 11 -2 20 -11 22 -22z m-1155
-66 c-1 -8 -5 -25 -9 -38 -6 -20 -4 -22 17 -14 31 12 49 5 49 -18 0 -12 -10
-21 -30 -25 -26 -6 -29 -9 -19 -27 14 -26 5 -48 -20 -48 -14 0 -23 9 -27 25
-7 29 -16 31 -34 10 -15 -18 -32 -19 -48 -3 -15 15 3 48 26 48 13 0 10 6 -11
23 -20 15 -26 27 -22 40 9 21 24 22 52 2 20 -14 22 -13 28 16 5 24 11 29 28
27 13 -2 21 -9 20 -18z m652 -18 c10 -29 12 -31 27 -16 20 21 48 11 48 -15 0
-14 -9 -23 -25 -27 -23 -6 -36 -24 -17 -24 20 0 43 -27 36 -43 -9 -23 -40 -21
-57 4 -14 20 -15 19 -25 -10 -11 -32 -26 -38 -52 -21 -12 8 -11 13 8 39 l23
31 -34 0 c-40 0 -46 5 -40 31 5 17 11 20 39 15 l32 -7 -11 31 c-10 25 -9 33 3
40 22 14 34 7 45 -28z m-330 -35 c-1 -25 1 -26 37 -21 33 6 38 4 38 -13 0 -25
-19 -43 -44 -43 -18 0 -18 -1 4 -25 19 -20 21 -27 10 -40 -19 -22 -39 -18 -52
10 l-12 26 -22 -28 c-19 -24 -24 -26 -38 -14 -20 17 -20 30 1 53 13 15 14 18
1 18 -8 0 -22 6 -32 13 -15 11 -17 17 -7 35 10 18 15 20 37 12 34 -13 34 -13
34 13 0 29 9 39 30 35 9 -2 15 -14 15 -31z m-525 -13 c0 -8 -7 -14 -15 -14
-15 0 -21 21 -9 33 10 9 24 -2 24 -19z m1035 -12 c0 -18 -20 -15 -23 4 -3 10
1 15 10 12 7 -3 13 -10 13 -16z m-699 -78 c-5 -13 -10 -14 -18 -6 -6 6 -8 18
-4 28 5 13 10 14 18 6 6 -6 8 -18 4 -28z m354 5 c0 -24 -23 -21 -28 4 -2 10 3
17 12 17 10 0 16 -9 16 -21z"/>
<path d="M1335 2986 c-80 -55 -97 -89 -103 -204 -5 -127 15 -184 96 -270 65
-68 126 -102 239 -133 92 -25 208 -81 222 -107 10 -18 8 -18 -44 0 -129 43
-266 31 -490 -44 -152 -51 -229 -58 -306 -29 -74 28 -132 71 -165 121 -41 61
-41 40 0 -45 25 -55 55 -95 100 -141 82 -82 149 -114 254 -121 l77 -5 150 93
c158 98 242 138 288 139 27 0 38 -22 17 -35 -17 -10 -11 -19 25 -43 35 -22 35
-22 35 -1 0 11 4 29 10 39 8 15 5 19 -15 24 -45 11 -27 26 23 19 26 -3 49 -7
51 -10 10 -8 -23 -141 -46 -186 -13 -27 -23 -59 -21 -71 1 -12 -6 -36 -16 -51
-11 -16 -22 -43 -25 -59 -5 -22 -16 -32 -51 -47 -71 -28 -178 -20 -172 14 2
14 -2 15 -29 5 -19 -7 -64 -8 -118 -4 -90 7 -261 -17 -309 -43 -26 -14 -25
-15 -41 17 -13 25 -43 29 -61 7 -11 -14 -15 -14 -32 2 -16 14 -23 15 -38 5
-11 -7 -31 -12 -45 -12 -14 0 -34 -9 -46 -21 -19 -19 -20 -22 -4 -46 9 -13 15
-26 13 -27 -2 -1 -15 -7 -30 -13 -38 -17 -51 -45 -32 -71 21 -31 42 -28 36 4
-3 16 3 36 17 54 17 23 19 34 11 55 -8 22 -7 27 13 34 13 5 35 7 50 4 20 -4
27 -1 27 11 0 23 17 20 25 -4 8 -25 19 -25 44 1 13 14 21 17 26 9 4 -6 -2 -21
-13 -33 -10 -12 -22 -35 -26 -51 l-7 -28 50 36 c101 75 125 80 326 80 158 0
187 -3 238 -22 31 -11 57 -18 57 -14 0 5 17 13 38 19 20 6 51 16 68 23 36 15
84 6 84 -15 0 -9 9 -15 23 -14 12 0 16 3 10 6 -7 2 -13 12 -13 22 0 9 -13 30
-30 46 l-29 28 36 50 c27 37 31 47 16 39 -33 -18 -34 -3 -2 52 17 31 29 67 29
89 0 20 4 38 9 41 4 3 50 -31 102 -75 52 -45 119 -93 149 -108 30 -15 71 -37
90 -49 51 -32 72 -29 65 8 -6 35 -3 36 36 13 32 -19 38 -33 13 -33 -9 0 -14
-3 -12 -7 2 -5 10 -21 17 -38 7 -16 23 -49 34 -73 19 -36 20 -44 8 -52 -13 -7
-12 -14 1 -49 15 -36 9 -58 -7 -31 -3 6 -11 10 -16 10 -24 0 57 -124 109 -166
81 -66 85 -53 8 25 -61 62 -67 72 -62 98 4 16 2 43 -4 59 -8 20 -8 30 -1 32
13 4 14 39 2 47 -17 10 -53 119 -42 123 17 6 13 22 -14 58 -31 40 -36 110 -7
99 66 -25 100 -28 126 -12 39 26 44 63 15 116 -13 25 -30 47 -37 49 -11 3 -12
0 -3 -16 15 -28 14 -30 -11 -34 -32 -5 -33 -24 -1 -54 l28 -27 -37 6 c-20 3
-38 1 -40 -4 -2 -5 -43 -2 -97 6 -76 13 -110 24 -180 62 -95 52 -161 106 -161
133 0 31 111 224 148 258 42 38 129 86 136 74 2 -4 -6 -32 -20 -62 -24 -58
-29 -80 -16 -80 12 0 64 141 58 156 -7 19 -26 18 -79 -5 -67 -29 -124 -86
-162 -162 -54 -110 -85 -158 -107 -165 -16 -5 -32 6 -77 52 -31 33 -101 91
-156 129 -249 175 -342 335 -270 465 l25 45 -29 -31 c-16 -17 -31 -38 -33 -45
-3 -8 -9 -11 -13 -7 -4 4 6 23 22 43 29 38 73 62 133 75 l35 8 -45 1 c-36 1
-55 -6 -95 -33z m-55 -170 c0 -68 165 -266 290 -348 30 -20 68 -50 84 -67 27
-28 28 -31 10 -31 -31 0 -192 57 -239 84 -114 67 -193 208 -182 326 6 67 15
89 28 69 5 -8 9 -22 9 -33z m340 -544 c0 -5 -12 -14 -27 -21 -29 -13 -80 -42
-271 -156 l-113 -67 -77 4 c-67 3 -83 7 -122 35 -48 34 -87 70 -135 121 -31
35 -32 35 45 0 91 -42 164 -34 400 42 125 39 169 49 228 50 39 0 72 -4 72 -8z
m235 -22 c3 -5 1 -10 -4 -10 -6 0 -11 5 -11 10 0 6 2 10 4 10 3 0 8 -4 11 -10z
m49 -61 c-10 -16 -22 -9 -27 16 -4 24 -3 25 14 9 10 -9 16 -21 13 -25z m-190
0 c-3 -5 -10 -7 -15 -3 -5 3 -7 10 -3 15 3 5 10 7 15 3 5 -3 7 -10 3 -15z
m156 -35 c0 -8 -5 -12 -10 -9 -6 4 -8 11 -5 16 9 14 15 11 15 -7z m128 -15
c46 -28 50 -33 47 -66 -2 -19 -7 -38 -10 -41 -12 -12 -36 33 -30 56 7 27 -11
30 -20 2 -3 -11 -12 -20 -20 -20 -11 0 -12 7 -4 32 5 17 6 34 3 37 -8 8 -34
-30 -28 -40 8 -14 -12 -10 -24 4 -8 10 -6 16 9 25 10 7 19 19 19 27 0 20 1 20
58 -16z m-78 11 c0 -5 -4 -10 -9 -10 -6 0 -13 5 -16 10 -3 6 1 10 9 10 9 0 16
-4 16 -10z m168 -68 c2 -7 -3 -12 -12 -12 -9 0 -16 7 -16 16 0 17 22 14 28 -4z
m147 -60 c3 -13 3 -27 0 -30 -5 -6 -145 15 -171 25 -16 6 -6 33 12 33 8 0 17
6 20 13 4 10 17 10 69 -2 53 -12 65 -19 70 -39z"/>
<path d="M2197 2513 c-42 -7 -21 -23 29 -23 l46 0 -22 -36 c-31 -49 -21 -50
19 -3 51 61 32 77 -72 62z"/>
<path d="M2209 2461 c-13 -11 -21 -22 -18 -26 4 -3 20 5 35 19 34 29 18 35
-17 7z"/>
<path d="M1842 2437 c-7 -8 -24 -12 -42 -9 -25 4 -30 1 -30 -16 0 -24 35 -52
66 -52 28 0 56 33 52 62 -4 26 -30 35 -46 15z"/>
<path d="M2411 2421 c-6 -10 -22 -22 -37 -25 -24 -6 -25 -8 -10 -25 9 -9 21
-32 27 -49 l11 -31 24 29 c14 16 34 32 45 35 19 6 19 8 -5 30 -15 13 -26 31
-26 40 0 21 -17 19 -29 -4z m23 -58 c-15 -24 -31 -27 -38 -6 -9 22 22 49 38
33 7 -7 7 -16 0 -27z"/>
<path d="M2220 2397 c0 -3 16 -22 35 -41 19 -20 35 -42 35 -49 0 -6 16 -30 36
-52 l35 -40 -5 40 c-4 22 -7 45 -7 50 -1 6 0 17 2 25 3 10 -12 23 -41 37 -50
24 -90 37 -90 30z"/>
<path d="M2129 2339 c-10 -6 -7 -9 14 -9 29 0 35 5 14 13 -8 3 -20 1 -28 -4z"/>
<path d="M2083 2287 c-24 -8 -33 -17 -33 -33 0 -20 3 -22 30 -14 33 9 64 4 98
-18 20 -13 22 -13 22 3 0 9 -9 30 -21 46 -22 31 -40 34 -96 16z"/>
<path d="M2342 1983 c-13 -22 4 -70 28 -83 26 -14 68 4 82 35 15 33 -1 52 -31
36 -17 -9 -22 -8 -31 9 -13 24 -36 26 -48 3z"/>
<path d="M1450 1754 c0 -8 58 -33 93 -39 42 -8 53 10 15 24 -26 9 -108 21
-108 15z"/>
<path d="M2061 1742 c-8 -14 -13 -14 -36 -4 -32 15 -42 10 -20 -8 9 -8 40 -14
70 -15 49 -2 53 -1 42 16 -15 25 -45 31 -56 11z"/>
<path d="M715 1578 c-8 -30 -1 -48 21 -48 18 0 18 -14 -1 -65 -20 -56 -18 -88
5 -115 11 -13 20 -29 20 -35 0 -16 42 -58 72 -72 228 -109 169 -99 432 -73 84
8 145 8 205 1 128 -15 339 -13 449 3 53 8 140 19 193 25 53 6 107 15 120 20
39 15 -112 13 -221 -4 -183 -27 -276 -36 -375 -34 -98 2 -182 17 -105 19 27 0
31 3 18 10 -9 6 -83 12 -165 15 -81 4 -188 13 -237 21 -151 26 -111 8 99 -44
l40 -10 -42 -1 c-24 -1 -73 -6 -111 -13 -63 -10 -75 -10 -138 11 -90 29 -104
38 -84 51 11 7 5 10 -26 10 -48 0 -85 33 -104 93 -6 20 -16 37 -22 37 -24 0
-2 95 37 153 40 60 41 85 2 50 -33 -32 -59 -33 -67 -3 l-7 25 -8 -27z"/>
<path d="M2070 1471 c0 -5 9 -13 21 -16 11 -4 24 -18 29 -31 7 -18 17 -24 37
-23 27 0 28 1 6 11 -13 6 -23 17 -23 24 0 15 -38 44 -57 44 -7 0 -13 -4 -13
-9z"/>
<path d="M2516 1422 c22 -20 49 -48 60 -61 l19 -24 -25 6 c-14 3 -61 15 -105
26 -44 12 -84 21 -90 20 -18 0 108 -49 199 -76 87 -26 90 -28 122 -79 19 -29
34 -56 34 -59 0 -10 -66 -5 -77 6 -6 6 -17 9 -25 7 -20 -7 63 -39 92 -36 16 2
26 10 28 23 4 26 -49 100 -88 124 -16 10 -43 35 -58 57 -34 46 -98 104 -115
104 -7 0 6 -17 29 -38z"/>
<path d="M850 1321 c0 -5 14 -14 30 -20 33 -11 41 2 11 19 -24 12 -41 13 -41
1z"/>
<path d="M2265 1240 c-4 -6 13 -9 42 -9 26 0 104 -8 173 -20 68 -11 126 -19
128 -17 6 6 -89 34 -152 45 -75 14 -183 14 -191 1z"/>
<path d="M1437 1113 c-3 -4 -5 -79 -4 -165 l0 -158 31 1 c17 0 40 4 51 9 18 7
18 9 4 15 -15 5 -17 25 -15 153 l1 147 -32 3 c-17 2 -33 -1 -36 -5z"/>
<path d="M1638 1112 l-37 -3 0 -154 1 -153 58 -7 c33 -4 63 -4 69 -1 15 10 1
36 -19 36 -12 0 -20 11 -24 35 -5 26 -12 35 -26 35 -12 0 -20 7 -20 16 0 11 6
14 20 9 13 -4 20 -2 21 7 2 35 0 180 -3 181 -1 1 -20 1 -40 -1z"/>
<path d="M1870 1110 c0 -6 -9 -30 -20 -52 -11 -23 -20 -47 -20 -53 0 -6 -9
-28 -20 -50 -11 -22 -20 -49 -20 -61 0 -12 -7 -37 -15 -57 -16 -40 -12 -47 27
-47 22 0 31 7 42 35 15 34 17 35 70 35 47 0 56 -3 56 -17 1 -28 27 -56 46 -49
13 5 14 9 4 21 -7 8 -9 15 -6 15 4 0 2 9 -4 20 -6 11 -16 17 -25 14 -17 -7
-16 -8 -19 60 -2 43 -7 53 -37 78 -29 25 -32 31 -21 48 9 15 9 25 0 45 -11 25
-38 35 -38 15z m46 -127 c3 -10 12 -31 20 -46 20 -41 19 -44 -32 -46 -46 -1
-46 -1 -41 26 15 73 41 105 53 66z"/>
<path d="M2070 955 l0 -165 41 0 41 0 -3 128 -4 129 29 -17 c33 -18 50 -48 22
-37 -23 9 -7 -19 33 -57 29 -28 32 -29 49 -12 11 9 28 32 38 51 18 33 24 38
42 33 7 -3 13 -67 12 -123 -1 -16 -2 -39 -2 -50 -1 -38 2 -45 21 -45 18 0 19
10 20 160 1 130 -2 160 -13 160 -14 0 -52 -39 -91 -93 l-21 -29 -63 65 c-59
59 -68 65 -107 65 l-44 1 0 -164z m50 89 c0 -8 -4 -12 -10 -9 -5 3 -10 10 -10
16 0 5 5 9 10 9 6 0 10 -7 10 -16z m-16 -139 c-4 -8 -11 -12 -16 -9 -6 4 -5
10 3 15 19 12 19 11 13 -6z m16 -35 c0 -5 -5 -10 -11 -10 -5 0 -7 5 -4 10 3 6
8 10 11 10 2 0 4 -4 4 -10z"/>
<path d="M2563 1113 c-7 -2 -13 -15 -13 -29 0 -20 -37 -128 -60 -174 -4 -9
-11 -30 -14 -48 -4 -17 -12 -34 -17 -37 -5 -4 -9 -13 -9 -20 0 -11 6 -12 23
-6 12 4 27 6 34 4 6 -2 19 10 28 26 14 28 20 31 65 31 48 0 51 -2 67 -35 19
-39 37 -41 40 -4 3 26 -108 291 -123 295 -5 1 -15 0 -21 -3z m28 -78 c-1 -15
-24 -12 -29 3 -3 9 2 13 12 10 10 -1 17 -7 17 -13z m24 -85 c21 -41 19 -48
-17 -55 -18 -4 -39 -12 -45 -17 -9 -7 -13 -7 -13 1 0 6 5 11 10 11 6 0 9 3 8
8 -2 9 31 82 37 82 2 0 11 -13 20 -30z"/>
<path d="M800 1001 c0 -6 4 -12 8 -15 5 -3 7 -48 6 -100 -2 -94 -1 -96 21 -96
29 0 34 14 34 110 1 41 6 77 11 78 6 2 10 10 10 18 0 10 -13 14 -45 14 -25 0
-45 -4 -45 -9z"/>
<path d="M924 900 c-1 -99 0 -110 16 -110 19 0 30 19 30 51 0 17 6 20 42 17
35 -3 42 -7 45 -27 2 -14 6 -27 8 -30 13 -13 19 18 20 110 1 82 -1 99 -13 97
-11 -2 -15 -19 -16 -63 l-1 -60 -37 -3 c-38 -3 -38 -3 -39 35 -2 86 -3 88 -29
91 l-25 3 -1 -111z"/>
<path d="M1200 996 c0 -14 6 -16 34 -11 28 6 36 3 55 -21 15 -19 18 -31 11
-38 -17 -17 -11 -26 15 -26 29 0 31 10 10 49 -21 41 -125 80 -125 47z"/>
<path d="M1132 943 c-16 -29 -15 -45 4 -92 18 -45 58 -67 101 -56 16 4 36 9
47 11 21 4 46 23 46 35 0 15 -27 10 -40 -7 -9 -10 -26 -14 -49 -12 -34 3 -36
5 -39 41 -3 31 0 37 17 37 28 0 52 11 45 21 -3 5 -18 9 -33 9 -15 0 -33 6 -40
13 -11 10 -14 10 -18 0 -7 -19 -21 -16 -25 5 -3 15 -5 14 -16 -5z"/>
<path d="M1175 660 c-3 -5 -19 -10 -35 -10 -58 0 -43 -78 21 -111 21 -10 39
-26 39 -34 0 -19 -38 -29 -55 -15 -17 14 -45 6 -45 -13 0 -34 94 -53 115 -23
7 8 15 13 19 9 10 -10 26 18 26 45 0 25 -25 52 -72 77 -36 20 -37 44 -3 37 33
-6 60 15 44 34 -13 16 -45 18 -54 4z"/>
<path d="M1270 662 c0 -5 16 -31 35 -58 30 -42 35 -57 35 -107 0 -57 1 -58 26
-55 27 3 30 14 38 137 1 20 8 37 16 39 16 5 39 32 40 45 0 4 -13 7 -29 7 -25
0 -31 -6 -41 -34 -11 -35 -15 -36 -70 -27 -3 1 0 5 7 9 7 4 10 17 6 30 -4 16
-13 22 -34 22 -16 0 -29 -4 -29 -8z"/>
<path d="M1530 663 c-22 -9 -30 -24 -30 -61 0 -28 6 -36 45 -60 42 -25 62 -62
33 -62 -20 0 1 -13 24 -14 32 -3 48 12 48 44 0 37 -31 64 -70 58 -38 -6 -59
14 -39 38 9 11 23 14 45 11 43 -7 68 18 39 39 -19 14 -67 17 -95 7z"/>
<path d="M1715 661 c-27 -4 -41 -12 -43 -23 -3 -13 3 -18 20 -18 20 0 26 -7
34 -42 7 -33 13 -42 27 -40 9 2 17 -2 17 -8 0 -5 4 -10 9 -10 6 0 11 21 13 48
2 39 7 48 24 50 15 2 22 10 22 28 0 22 -4 24 -42 23 -22 -1 -59 -5 -81 -8z"/>
<path d="M1876 661 c-8 -12 2 -202 11 -211 2 -3 34 -5 69 -5 60 -1 64 1 64 22
0 21 -5 23 -49 23 -36 0 -51 4 -55 16 -9 22 -5 25 40 27 31 2 39 7 39 22 0 15
-8 21 -33 23 -25 3 -32 8 -30 20 2 12 15 18 46 20 28 2 42 8 42 17 0 19 -8 23
-77 30 -40 5 -63 4 -67 -4z"/>
<path d="M2063 578 c2 -67 6 -92 15 -90 7 1 12 -5 12 -13 0 -8 -7 -15 -15 -15
-8 0 -15 -4 -15 -10 0 -5 10 -8 22 -7 15 3 25 15 32 42 l11 39 27 -32 c15 -18
30 -32 35 -32 4 0 16 14 25 30 24 41 38 38 38 -10 0 -38 2 -40 29 -40 l29 0 1
115 c0 94 -2 115 -14 115 -8 0 -15 -4 -15 -9 0 -4 -17 -28 -38 -52 -21 -24
-42 -53 -46 -63 -6 -17 -10 -15 -41 20 -19 21 -35 45 -35 52 0 6 -4 12 -9 12
-5 0 -13 9 -16 20 -3 11 -13 20 -21 20 -11 0 -13 -18 -11 -92z"/>
<path d="M1752 495 c-16 -8 -20 -15 -12 -20 8 -5 8 -11 -1 -22 -11 -13 -9 -14
17 -11 22 2 30 9 32 27 5 31 -8 41 -36 26z"/>
<path d="M1495 489 c-8 -12 22 -49 40 -49 19 0 25 48 8 54 -23 9 -41 7 -48 -5z"/>
</g>
</svg>
